<svg width="1039" height="815" viewBox="0 0 1039 815" fill="none" xmlns="http://www.w3.org/2000/svg">
<path d="M252.024 215.73H49.4V78.02H252.024V215.73ZM51 214.14H250.424V79.61H51V214.14Z" fill="#EBEBEB"/>
<path d="M65.24 86.9399C65.24 87.7324 65.0036 88.5071 64.5605 89.166C64.1175 89.8249 63.4878 90.3384 62.751 90.6417C62.0142 90.945 61.2036 91.0243 60.4214 90.8697C59.6393 90.7151 58.9209 90.3335 58.357 89.7731C57.7931 89.2128 57.4091 88.4988 57.2535 87.7216C57.0979 86.9444 57.1778 86.1387 57.4829 85.4066C57.7881 84.6744 58.3049 84.0486 58.968 83.6084C59.631 83.1681 60.4106 82.9331 61.208 82.9331C62.2774 82.9331 63.3029 83.3553 64.0591 84.1067C64.8152 84.8581 65.24 85.8772 65.24 86.9399Z" fill="#A6A6A6"/>
<path d="M81.72 86.9399C81.7232 87.7369 81.4881 88.5168 81.0445 89.1808C80.6009 89.8447 79.9689 90.3628 79.2286 90.6693C78.4882 90.9757 77.673 91.0567 76.8863 90.902C76.0995 90.7473 75.3768 90.3638 74.8097 89.8003C74.2426 89.2367 73.8568 88.5185 73.7011 87.7367C73.5454 86.9549 73.6269 86.1448 73.9353 85.4091C74.2436 84.6734 74.765 84.0453 75.4331 83.6045C76.1012 83.1636 76.8861 82.93 77.6881 82.9331C78.7574 82.9331 79.783 83.3553 80.5391 84.1067C81.2952 84.8581 81.72 85.8773 81.72 86.9399Z" fill="#EBEBEB"/>
<path d="M98.2 86.9399C98.2 87.7324 97.9636 88.5071 97.5205 89.166C97.0775 89.8249 96.4478 90.3384 95.711 90.6417C94.9743 90.945 94.1636 91.0243 93.3814 90.8697C92.5993 90.7151 91.8809 90.3335 91.317 89.7731C90.7531 89.2128 90.3691 88.4988 90.2135 87.7216C90.0579 86.9444 90.1378 86.1387 90.443 85.4066C90.7481 84.6744 91.2649 84.0486 91.928 83.6084C92.591 83.1681 93.3706 82.9331 94.1681 82.9331C95.2374 82.9331 96.263 83.3553 97.0191 84.1067C97.7752 84.8581 98.2 85.8772 98.2 86.9399Z" fill="#48548B"/>
<path d="M251.224 93.9519H50.2V95.5419H251.224V93.9519Z" fill="#EBEBEB"/>
<path d="M37.144 223.155C37.8486 222.723 38.6602 222.494 39.488 222.494C40.3159 222.494 41.1275 222.723 41.832 223.155C42.216 223.399 42.616 223.622 43.032 223.823C43.432 224.046 43.848 224.252 44.264 224.459C45.0125 224.796 45.6524 225.332 46.1127 226.009C46.5731 226.685 46.8359 227.475 46.872 228.291L47.048 234.015L65.784 233.427L65.608 227.718C65.5838 226.895 65.7911 226.08 66.2065 225.367C66.622 224.654 67.2292 224.069 67.96 223.68C68.7819 223.243 69.5779 222.76 70.344 222.233C71.0126 221.759 71.8011 221.479 72.6208 221.426C73.4405 221.373 74.2589 221.547 74.984 221.931L80.04 224.634L88.904 208.209L83.8 205.554C83.0764 205.167 82.4759 204.587 82.0661 203.879C81.6562 203.171 81.4533 202.363 81.48 201.547C81.4962 200.619 81.4641 199.69 81.384 198.765C81.3054 197.948 81.4567 197.126 81.8212 196.391C82.1857 195.655 82.749 195.035 83.448 194.599L88.248 191.594L78.376 175.694L73.464 178.715C72.7643 179.144 71.9583 179.371 71.136 179.371C70.3138 179.371 69.5077 179.144 68.808 178.715C68.424 178.481 68.024 178.259 67.608 178.047C67.208 177.824 66.792 177.618 66.376 177.427C65.624 177.086 64.9819 176.544 64.5214 175.862C64.061 175.18 63.8001 174.384 63.768 173.563L63.592 167.855L44.856 168.427L45.032 174.12C45.0566 174.939 44.8511 175.75 44.4385 176.46C44.026 177.171 43.4226 177.753 42.696 178.142C41.88 178.587 41.096 179.08 40.312 179.605C39.6402 180.079 38.8492 180.358 38.0271 180.412C37.205 180.465 36.3841 180.29 35.656 179.907L30.6 177.22L21.736 193.629L26.792 196.332C27.5193 196.719 28.1225 197.301 28.5328 198.012C28.943 198.724 29.1437 199.535 29.112 200.355C29.1587 201.297 29.2548 202.236 29.4 203.169C29.475 203.985 29.322 204.805 28.9578 205.54C28.5937 206.275 28.0325 206.896 27.336 207.335L22.536 210.34L32.408 226.16L37.144 223.155ZM41.848 193.756C43.284 191.101 45.4795 188.929 48.1571 187.513C50.8348 186.098 53.8745 185.503 56.8924 185.803C59.9102 186.104 62.7708 187.286 65.1128 189.201C67.4548 191.116 69.1732 193.678 70.0508 196.563C70.9285 199.448 70.9261 202.527 70.0439 205.41C69.1617 208.294 67.4394 210.853 65.0943 212.765C62.7493 214.676 59.8869 215.854 56.8686 216.15C53.8503 216.446 50.8115 215.846 48.136 214.426C44.5461 212.512 41.8675 209.259 40.6885 205.384C39.5095 201.508 39.9265 197.326 41.848 193.756Z" fill="#EBEBEB"/>
<path d="M964.376 394.637C965.077 394.204 965.887 393.975 966.712 393.975C967.537 393.975 968.347 394.204 969.048 394.637L970.248 395.32L971.496 395.94C972.244 396.277 972.884 396.814 973.345 397.49C973.805 398.167 974.068 398.957 974.104 399.772L974.28 405.496L993.016 404.908L992.84 399.2C992.818 398.381 993.027 397.572 993.442 396.864C993.858 396.156 994.464 395.577 995.192 395.193C996.005 394.745 996.796 394.257 997.56 393.73C998.233 393.26 999.024 392.983 999.845 392.929C1000.67 392.876 1001.49 393.049 1002.22 393.428L1007.27 396.131L1016.14 379.707L1011.08 377.019C1010.36 376.63 1009.75 376.047 1009.34 375.336C1008.93 374.625 1008.73 373.815 1008.76 372.997C1008.78 372.074 1008.74 371.15 1008.66 370.23C1008.59 369.412 1008.74 368.588 1009.1 367.85C1009.47 367.112 1010.03 366.488 1010.73 366.048L1015.53 363.043L1005.66 347.143L1000.74 350.18C1000.04 350.609 999.238 350.837 998.416 350.837C997.594 350.837 996.788 350.609 996.088 350.18L994.888 349.512C994.488 349.29 994.072 349.083 993.656 348.892C992.904 348.556 992.262 348.017 991.801 347.337C991.34 346.658 991.079 345.864 991.048 345.045L990.872 339.321L972.136 339.893L972.312 345.601C972.337 346.419 972.132 347.228 971.719 347.936C971.306 348.644 970.702 349.223 969.976 349.608C969.151 350.052 968.355 350.546 967.592 351.087C966.919 351.558 966.127 351.834 965.305 351.885C964.483 351.935 963.663 351.758 962.936 351.373L957.88 348.686L949.096 365.19L954.152 367.877C954.874 368.27 955.473 368.853 955.883 369.563C956.292 370.273 956.496 371.082 956.472 371.9C956.456 372.828 956.488 373.757 956.568 374.682C956.643 375.5 956.488 376.322 956.121 377.058C955.754 377.793 955.189 378.413 954.488 378.848L949.688 381.853L959.56 397.753L964.376 394.637ZM969.08 365.19C970.517 362.536 972.714 360.364 975.393 358.95C978.072 357.536 981.112 356.942 984.13 357.244C987.148 357.547 990.008 358.731 992.349 360.648C994.69 362.564 996.407 365.128 997.282 368.014C998.158 370.9 998.153 373.979 997.269 376.862C996.384 379.745 994.66 382.303 992.313 384.213C989.966 386.123 987.103 387.298 984.084 387.592C981.065 387.885 978.026 387.282 975.352 385.86C973.573 384.914 971.999 383.628 970.72 382.076C969.442 380.525 968.484 378.738 967.901 376.818C967.318 374.898 967.123 372.882 967.325 370.887C967.527 368.892 968.124 366.956 969.08 365.19Z" fill="#EBEBEB"/>
<path d="M74.936 271.873C75.4437 272.163 75.8614 272.587 76.1436 273.097C76.4257 273.607 76.5615 274.185 76.536 274.767C76.536 275.085 76.536 275.403 76.536 275.721C76.536 276.039 76.536 276.373 76.536 276.691C76.5684 277.269 76.4353 277.845 76.1522 278.351C75.869 278.858 75.4474 279.274 74.936 279.553L71.432 281.556L78.008 292.861L81.496 290.857C81.9901 290.586 82.5497 290.454 83.1139 290.477C83.6781 290.499 84.2253 290.675 84.696 290.985C85.24 291.334 85.816 291.652 86.392 291.955C86.9086 292.208 87.3439 292.6 87.6491 293.086C87.9543 293.572 88.1173 294.132 88.12 294.705V298.696H101.4V294.705C101.403 294.132 101.566 293.572 101.871 293.086C102.176 292.6 102.611 292.208 103.128 291.955C103.704 291.652 104.264 291.334 104.728 290.985C105.199 290.676 105.746 290.502 106.31 290.479C106.874 290.457 107.433 290.588 107.928 290.857L111.416 292.861L117.976 281.556L114.472 279.553C113.959 279.272 113.537 278.852 113.254 278.343C112.971 277.834 112.838 277.255 112.872 276.675C112.872 276.357 112.872 276.039 112.872 275.721C112.872 275.403 112.872 275.085 112.872 274.767C112.838 274.186 112.971 273.607 113.254 273.098C113.537 272.589 113.959 272.17 114.472 271.889L117.96 269.885L111.4 258.58L107.928 260.584C107.422 260.861 106.85 260.997 106.273 260.978C105.695 260.958 105.134 260.784 104.648 260.473C104.101 260.114 103.535 259.784 102.952 259.487C102.434 259.234 101.998 258.843 101.693 258.357C101.387 257.871 101.225 257.309 101.224 256.736V252.745H88.088V256.736C88.0872 257.309 87.9249 257.871 87.6195 258.357C87.3141 258.843 86.8778 259.234 86.36 259.487C85.7751 259.781 85.2088 260.11 84.664 260.473C84.1875 260.769 83.6408 260.935 83.079 260.955C82.5173 260.974 81.9602 260.846 81.464 260.584L78.024 258.66L71.448 269.965L74.936 271.873ZM94.76 265.02C96.8904 265.017 98.9738 265.642 100.747 266.816C102.52 267.989 103.902 269.66 104.72 271.615C105.537 273.57 105.753 275.722 105.339 277.798C104.925 279.875 103.901 281.783 102.396 283.282C100.891 284.78 98.9719 285.8 96.8826 286.215C94.7934 286.629 92.6275 286.418 90.659 285.608C88.6905 284.799 87.0078 283.427 85.8239 281.667C84.64 279.907 84.008 277.838 84.008 275.721C84.0122 272.887 85.1459 270.17 87.1609 268.164C89.1759 266.159 91.9082 265.028 94.76 265.02Z" fill="#EBEBEB"/>
<path d="M65.6561 435.15C65.6561 433.353 65.896 428.567 65.896 426.532C65.896 417.803 62.696 413.812 54.584 413.621C50.744 413.383 48.4561 411.109 48.4561 407.882C48.4561 404.654 50.744 402.38 54.584 402.142C62.776 401.776 65.896 397.944 65.896 389.104C65.896 387.068 65.6561 382.282 65.6561 380.486C65.6561 368.895 70.6001 361.406 89.2561 357.415C90.5248 357.121 91.8583 357.311 92.9927 357.948C94.1271 358.584 94.9798 359.62 95.3821 360.852C95.7844 362.083 95.7069 363.42 95.1651 364.597C94.6233 365.774 93.6565 366.706 92.4561 367.209C80.7761 370.803 79.096 374.507 79.096 382.648C79.096 385.033 79.336 389.008 79.336 391.489C79.336 400.822 74.76 405.369 66.808 407.882C74.808 410.505 79.336 414.941 79.336 424.258C79.336 426.771 79.096 430.714 79.096 433.115C79.096 441.24 80.6961 444.96 92.4561 448.538C93.6826 449.023 94.6774 449.954 95.2387 451.141C95.8001 452.329 95.8859 453.684 95.4788 454.932C95.0717 456.18 94.2022 457.227 93.0466 457.862C91.891 458.496 90.5359 458.67 89.2561 458.348C70.6001 454.23 65.6561 446.821 65.6561 435.15Z" fill="#EBEBEB"/>
<path d="M136.184 380.438C136.184 382.235 135.944 387.021 135.944 389.056C135.944 397.896 139.144 401.776 147.384 402.094C151.112 402.332 153.4 404.606 153.4 407.834C153.4 411.061 151.112 413.335 147.384 413.574C139.192 413.812 135.944 417.755 135.944 426.484C135.944 428.52 136.184 433.306 136.184 435.102C136.184 446.821 131.256 454.182 112.6 458.3C111.291 458.722 109.867 458.61 108.641 457.988C107.415 457.366 106.488 456.286 106.064 454.985C105.64 453.684 105.753 452.269 106.378 451.051C107.004 449.833 108.091 448.912 109.4 448.49C120.952 444.913 122.648 441.192 122.648 433.067C122.648 430.666 122.408 426.707 122.408 424.211C122.408 414.893 126.968 410.346 134.92 407.834C126.92 405.194 122.408 400.774 122.408 391.441C122.408 388.929 122.648 384.985 122.648 382.6C122.648 374.46 120.952 370.755 109.4 367.162C108.359 366.838 107.453 366.184 106.823 365.299C106.193 364.414 105.873 363.348 105.912 362.264C105.893 361.461 106.067 360.664 106.422 359.942C106.776 359.219 107.3 358.592 107.949 358.112C108.598 357.632 109.353 357.314 110.151 357.185C110.949 357.055 111.767 357.118 112.536 357.367C131.256 361.422 136.184 368.847 136.184 380.438Z" fill="#EBEBEB"/>
<path d="M912.904 190.703C913.843 191.583 914.493 192.725 914.767 193.978C915.042 195.232 914.929 196.539 914.442 197.727C913.956 198.915 913.12 199.93 912.043 200.637C910.966 201.344 909.699 201.711 908.408 201.69C906.629 201.725 904.907 201.069 903.608 199.862L874.808 170.828C874.488 170.733 874.392 170.526 874.296 170.224C874.2 170.14 874.092 170.071 873.976 170.017C873.84 169.761 873.738 169.489 873.672 169.206C873.591 169.168 873.521 169.11 873.468 169.038C873.415 168.966 873.38 168.882 873.368 168.793C873.272 168.586 873.272 168.284 873.16 168.189C873.048 168.093 872.952 167.775 872.952 167.68V166.965C872.952 166.758 872.856 166.662 872.856 166.344C872.856 166.026 872.952 165.947 872.952 165.836V165.136C872.952 164.929 873.16 164.818 873.16 164.723C873.16 164.627 873.272 164.214 873.368 163.912C873.464 163.61 873.464 163.8 873.464 163.705C873.464 163.61 873.784 162.99 873.976 162.783C873.976 162.728 873.998 162.675 874.037 162.637C874.076 162.598 874.129 162.576 874.184 162.576C874.33 162.295 874.544 162.054 874.808 161.877L903.608 132.843C904.849 131.665 906.5 131.008 908.216 131.008C909.932 131.008 911.583 131.665 912.824 132.843C913.443 133.436 913.936 134.148 914.273 134.935C914.609 135.721 914.783 136.567 914.783 137.422C914.783 138.277 914.609 139.123 914.273 139.91C913.936 140.697 913.443 141.408 912.824 142.002L888.6 166.344L912.904 190.703Z" fill="#EBEBEB"/>
<path d="M939.048 193.963L964.152 134.64C964.446 133.956 964.874 133.336 965.41 132.816C965.947 132.297 966.581 131.888 967.277 131.613C967.973 131.338 968.717 131.203 969.465 131.215C970.214 131.227 970.953 131.386 971.64 131.682C972.307 131.969 972.911 132.384 973.416 132.904C973.921 133.423 974.318 134.036 974.584 134.708C974.85 135.381 974.98 136.098 974.967 136.821C974.953 137.543 974.796 138.255 974.504 138.917L949.4 198.335C948.953 199.341 948.219 200.195 947.29 200.791C946.36 201.387 945.275 201.7 944.168 201.69C943.465 201.703 942.767 201.568 942.12 201.293C941.424 201.024 940.79 200.619 940.256 200.101C939.722 199.583 939.298 198.963 939.011 198.279C938.724 197.594 938.58 196.859 938.586 196.117C938.592 195.375 938.749 194.642 939.048 193.963Z" fill="#EBEBEB"/>
<path d="M1024.12 170.017C1024.12 170.043 1024.11 170.067 1024.09 170.085C1024.07 170.103 1024.05 170.113 1024.02 170.113C1023.81 170.375 1023.57 170.614 1023.3 170.828L994.504 199.862C993.258 201.037 991.606 201.692 989.888 201.692C988.17 201.692 986.518 201.037 985.272 199.862C984.664 199.262 984.182 198.548 983.853 197.762C983.524 196.976 983.355 196.134 983.355 195.282C983.355 194.431 983.524 193.588 983.853 192.803C984.182 192.017 984.664 191.303 985.272 190.703L1009.56 166.344L985.272 142.002C984.664 141.402 984.182 140.688 983.853 139.902C983.524 139.116 983.355 138.274 983.355 137.422C983.355 136.571 983.524 135.728 983.853 134.942C984.182 134.157 984.664 133.443 985.272 132.843C986.516 131.664 988.169 131.006 989.888 131.006C991.607 131.006 993.26 131.664 994.504 132.843L1023.3 161.877C1023.57 162.085 1023.81 162.32 1024.02 162.576C1024.12 162.576 1024.12 162.783 1024.12 162.783C1024.31 163.079 1024.48 163.387 1024.63 163.705C1024.63 163.8 1024.74 163.8 1024.74 163.912C1024.81 164.225 1024.91 164.529 1025.05 164.818C1025.05 164.929 1025.14 164.929 1025.14 165.136V165.836C1025.14 165.947 1025.26 166.249 1025.26 166.344C1025.26 166.44 1025.14 166.758 1025.14 166.853V167.68C1025.14 167.775 1025.05 167.775 1025.05 167.887C1024.92 168.181 1024.82 168.484 1024.74 168.793C1024.74 168.904 1024.63 168.904 1024.63 169.095C1024.63 169.286 1024.33 169.62 1024.12 170.017Z" fill="#EBEBEB"/>
<path d="M14.232 535.638C337.624 534.652 700.376 534.652 1023.83 535.638C700.44 536.608 337.688 536.608 14.232 535.638Z" fill="#263238"/>
<path d="M1024.6 299.634C987.224 349.942 948.248 408.311 938.76 471.354C938.648 472.308 940.184 472.626 940.36 471.672C944.657 454.471 950.181 437.596 956.888 421.174C981.464 414.448 1005.58 408.931 1018.49 384.699C1031.64 359.784 1029.98 327.3 1027.46 300.159C1027.38 298.744 1025.4 298.664 1024.6 299.634Z" fill="#48548B"/>
<path d="M957.4 420.729C974.2 383.284 995.8 345.697 1023.14 314.914C1023.32 314.708 1023.61 314.994 1023.45 315.201C1005.51 337.127 991.88 361.008 978.648 385.304C991.016 372.822 1004.58 361.644 1016.31 348.4C1016.54 348.145 1016.9 348.527 1016.68 348.781C1005.05 362.662 992.328 377.735 977.176 388.007C973.101 395.427 968.989 402.9 964.84 410.426C965.864 409.853 966.904 409.36 967.96 408.836C968.136 408.756 968.296 409.026 968.12 409.122C966.968 409.694 965.816 410.314 964.616 410.807C962.648 414.353 960.712 417.899 958.68 421.428C958.104 422.208 957 421.524 957.4 420.729Z" fill="#263238"/>
<path d="M969.848 407.659C979.9 402.058 989.492 395.678 998.536 388.579C998.776 388.388 999.128 388.722 998.888 388.929C990.11 396.482 980.484 403.002 970.2 408.359C969.8 408.597 969.384 407.929 969.848 407.659Z" fill="#263238"/>
<path d="M934.488 462.005C934.568 462.768 935.864 462.768 935.848 462.005C936.056 441.24 935.848 420.379 936.184 399.502C941.544 388.77 953.032 382.823 961.032 374.221C966.779 367.919 971.783 360.984 975.944 353.551C985.816 336.061 991.176 316.218 993.224 296.311C995.432 274.051 986.952 200.784 977.528 203.328C972.648 204.648 956.824 240.963 952.632 252.968C945.825 272.766 940.845 293.138 937.752 313.833C930.104 362.63 930.744 412.89 934.488 462.005Z" fill="#48548B"/>
<path d="M934.344 372.409L934.44 372.313C935.576 346.031 941.544 319.493 947.112 294.006C953.128 266.546 960.152 240.677 974.312 216.191C974.369 216.1 974.46 216.035 974.564 216.009C974.669 215.983 974.78 215.998 974.873 216.052C974.967 216.105 975.035 216.193 975.065 216.296C975.095 216.399 975.083 216.51 975.032 216.605C965.54 235.649 958.194 255.677 953.128 276.325C954.088 274.846 955.24 273.447 956.232 272.048C956.616 271.491 957.544 272.048 957.16 272.573C955.884 274.788 954.394 276.876 952.712 278.805C952.659 278.855 952.592 278.889 952.52 278.901C947.624 298.521 944.12 318.651 941.112 338.637C941.336 338.383 941.544 338.096 941.768 337.858C941.804 337.831 941.848 337.816 941.893 337.816C941.938 337.816 941.982 337.83 942.019 337.857C942.055 337.884 942.081 337.922 942.094 337.965C942.106 338.008 942.104 338.054 942.088 338.096C941.704 338.764 941.288 339.416 940.888 340.084C939.288 350.244 937.96 360.388 936.552 370.453C954.76 354.982 970.328 336.745 979.096 314.278C979.103 314.261 979.116 314.247 979.131 314.237C979.147 314.226 979.165 314.221 979.184 314.221C979.203 314.221 979.221 314.226 979.237 314.237C979.252 314.247 979.265 314.261 979.272 314.278C970.68 337.572 957.128 358.289 936.264 372.44L935.112 380.549C935.032 381.106 934.136 380.963 934.136 380.422C934.136 378.021 934.264 375.652 934.36 373.22C934.301 373.17 934.253 373.108 934.22 373.039C934.187 372.97 934.169 372.894 934.168 372.818C934.166 372.741 934.181 372.665 934.212 372.594C934.242 372.524 934.287 372.46 934.344 372.409Z" fill="#263238"/>
<path d="M943 334.312C956.92 313.642 969.912 293.624 980.104 270.808C980.216 270.553 980.664 270.808 980.552 270.999C971.976 293.672 959.96 316.647 943.752 334.853C943.288 335.219 942.632 334.742 943 334.312Z" fill="#263238"/>
<path d="M961.416 265.704C967.176 255.575 973.256 245.702 978.696 235.367C978.84 235.08 979.24 235.367 979.112 235.605C974.671 246.4 969.036 256.671 962.312 266.228C961.928 266.753 961.08 266.292 961.416 265.704Z" fill="#263238"/>
<path d="M959.16 270.124C959.177 270.131 959.191 270.144 959.202 270.159C959.212 270.175 959.217 270.193 959.217 270.211C959.217 270.23 959.212 270.248 959.202 270.263C959.191 270.279 959.177 270.291 959.16 270.298C959.143 270.291 959.128 270.279 959.118 270.263C959.108 270.248 959.102 270.23 959.102 270.211C959.102 270.193 959.108 270.175 959.118 270.159C959.128 270.144 959.143 270.131 959.16 270.124Z" fill="#263238"/>
<path d="M920.344 401.935C920.061 415.702 918.427 429.41 915.464 442.862C915.672 444.34 915.88 445.819 916.104 447.345C920.367 432.483 922.838 417.17 923.464 401.728C923.591 401.514 923.657 401.27 923.657 401.021C923.657 400.772 923.591 400.528 923.464 400.313C924.107 379.599 922.611 358.873 919 338.462C912.52 300.302 898.376 263.653 871.592 235.033C871.37 234.846 871.108 234.711 870.826 234.64C870.544 234.568 870.249 234.561 869.964 234.619C869.679 234.677 869.411 234.799 869.18 234.976C868.949 235.152 868.762 235.378 868.632 235.637C857.816 262.953 861.592 295.564 870.808 322.817C875.821 337.551 882.974 351.478 892.04 364.157C901.16 377.052 912.872 387.911 920.344 401.935Z" fill="#48548B"/>
<path d="M874.68 247.816C900.072 288.775 917.736 337.317 919.896 385.701C919.896 386.56 918.488 386.782 918.296 385.908C917.704 381.551 917.032 377.242 916.328 372.965C905.832 362.964 895.048 352.406 887.528 339.925C887.384 339.702 887.704 339.448 887.88 339.639C897.016 350.021 905.48 360.659 915.864 369.849C914.061 359.143 911.891 348.612 909.352 338.255C908.664 337.476 908.008 336.665 907.336 335.902C906.904 335.393 907.624 334.646 908.088 335.155L908.696 335.823C905.119 321.612 900.689 307.627 895.432 293.942C889.032 286.278 881.736 279.632 877.032 270.426C877.007 270.382 877 270.329 877.013 270.28C877.027 270.231 877.059 270.189 877.104 270.164C877.149 270.138 877.201 270.132 877.251 270.145C877.3 270.159 877.343 270.191 877.368 270.235C881.02 275.589 884.939 280.758 889.112 285.722C890.824 287.678 892.696 289.506 894.472 291.398C888.611 276.558 881.659 262.167 873.672 248.341C873.602 248.208 873.588 248.053 873.633 247.91C873.678 247.767 873.778 247.647 873.912 247.578C874.046 247.508 874.202 247.494 874.346 247.539C874.49 247.584 874.61 247.683 874.68 247.816Z" fill="#263238"/>
<path d="M879.816 298.41C888.024 309.397 897.416 319.859 905 331.212C905.224 331.53 904.744 331.864 904.472 331.609C894.664 322.483 886.376 310.001 879.256 298.744C879 298.299 879.576 298.012 879.816 298.41Z" fill="#263238"/>
<path d="M906.2 333.676L906.552 334.026C906.792 334.265 906.408 334.63 906.168 334.392L905.816 334.042C905.528 333.804 905.912 333.39 906.2 333.676Z" fill="#263238"/>
<path d="M834.904 326.537C836.936 347.605 848.088 372.774 861.688 389.008C867.673 396.066 875.073 401.806 883.416 405.862C892.824 410.489 902.616 415.816 912.424 419.616C917.045 431.315 920.48 443.443 922.68 455.82C923 454.771 923.304 453.674 923.624 452.64C917.368 399.311 882.648 353.71 838.216 324.438C837.868 324.215 837.464 324.096 837.05 324.094C836.636 324.093 836.231 324.21 835.882 324.431C835.533 324.652 835.255 324.968 835.082 325.342C834.909 325.715 834.847 326.13 834.904 326.537Z" fill="#48548B"/>
<path d="M850.2 342.31C849.88 342.024 850.312 341.467 850.648 341.722C874.2 359.053 895.448 384.334 907.272 411.062C907.592 411.793 906.584 412.429 906.168 411.698C904.104 408.104 901.992 404.606 899.768 401.172C889.624 399.28 880.024 392.188 872.568 385.447C872.36 385.272 872.664 384.97 872.856 385.145C876.729 388.654 881.029 391.666 885.656 394.112C889.8 396.195 894.248 397.515 898.552 399.184C894.792 393.254 890.872 387.561 886.792 382.044C875.864 378.355 865.48 371.693 856.392 365.031C856.104 364.824 856.392 364.347 856.68 364.538C865.844 370.049 875.298 375.069 885 379.58C878.814 371.46 872.135 363.724 865 356.413C861.56 354.601 858.056 352.788 854.712 350.848C854.44 350.689 854.712 350.228 854.936 350.339C857.712 351.301 860.361 352.593 862.824 354.187C858.808 350.165 854.664 346.19 850.2 342.31Z" fill="#263238"/>
<path d="M851.192 360.722C851.795 361.078 852.368 361.482 852.904 361.931C853.064 362.074 852.904 362.28 852.68 362.217C852.066 361.924 851.472 361.589 850.904 361.215C850.6 361.008 850.888 360.531 851.192 360.722Z" fill="#263238"/>
<path d="M883.896 436.899H980.28L970.792 535.622H893.384L883.896 436.899Z" fill="#455A64"/>
<path d="M885.72 455.852L883.896 436.899H980.28L979.112 449.126L885.72 455.852Z" fill="#37474F"/>
<path d="M986.808 419.902H877.384V443.943H986.808V419.902Z" fill="#455A64"/>
<path d="M931.657 0H107.361V547.94H931.657V0Z" fill="#DBDBDB"/>
<path d="M925.664 6.68018H113.354V541.26H925.664V6.68018Z" fill="#263238"/>
<path d="M1039 675.219H0V713.179H1039V675.219Z" fill="#C7C7C7"/>
<path d="M0 675.219L107.361 547.94H931.639L1039 675.219H0Z" fill="#DBDBDB"/>
<path d="M931.604 605.641H110.508L152.603 547.94H889.51L931.604 605.641Z" fill="#263238"/>
<path d="M916.897 585.477H125.216L126.923 583.126H915.189L916.897 585.477Z" fill="#37474F"/>
<path d="M901.514 564.411H140.599L142.306 562.043H899.806L901.514 564.411Z" fill="#37474F"/>
<path d="M392.399 660.904L419.004 620.292H621.259L649.731 660.904H392.399Z" fill="#263238"/>
<path d="M595.704 690.47H446.409L442.71 675.219H599.42L595.704 690.47Z" fill="#DBDBDB"/>
<path d="M880.369 47.2917H158.649V501.408H880.369V47.2917Z" fill="#37474F"/>
<path d="M880.369 47.2917H158.649V64.77H880.369V47.2917Z" fill="#48548B"/>
<path d="M175.188 56.0224C175.188 56.676 174.993 57.3149 174.628 57.8584C174.262 58.4019 173.743 58.8255 173.135 59.0756C172.528 59.3257 171.859 59.3911 171.214 59.2636C170.569 59.1361 169.976 58.8214 169.511 58.3592C169.046 57.897 168.729 57.3082 168.601 56.6671C168.473 56.026 168.538 55.3615 168.79 54.7577C169.042 54.1538 169.468 53.6377 170.015 53.2745C170.562 52.9114 171.205 52.7176 171.863 52.7176C172.3 52.7152 172.733 52.7991 173.138 52.9644C173.543 53.1296 173.91 53.373 174.219 53.6803C174.529 53.9876 174.773 54.3529 174.94 54.7549C175.106 55.1569 175.19 55.5877 175.188 56.0224Z" fill="#C7C7C7"/>
<path d="M188.722 56.0224C188.722 56.676 188.527 57.3149 188.161 57.8584C187.796 58.4019 187.276 58.8255 186.669 59.0756C186.061 59.3257 185.392 59.3911 184.747 59.2636C184.102 59.1361 183.51 58.8214 183.044 58.3592C182.579 57.897 182.263 57.3082 182.134 56.6671C182.006 56.026 182.072 55.3615 182.324 54.7577C182.575 54.1538 183.002 53.6377 183.548 53.2745C184.095 52.9114 184.738 52.7176 185.396 52.7176C185.833 52.7152 186.267 52.7991 186.671 52.9644C187.076 53.1296 187.444 53.373 187.753 53.6803C188.062 53.9876 188.307 54.3529 188.473 54.7549C188.64 55.1569 188.724 55.5877 188.722 56.0224Z" fill="white"/>
<path d="M202.362 56.0224C202.362 56.676 202.167 57.3149 201.801 57.8584C201.436 58.4019 200.916 58.8255 200.309 59.0756C199.701 59.3257 199.032 59.3911 198.387 59.2636C197.742 59.1361 197.15 58.8214 196.685 58.3592C196.22 57.897 195.903 57.3082 195.775 56.6671C195.646 56.026 195.712 55.3615 195.964 54.7577C196.215 54.1538 196.642 53.6377 197.189 53.2745C197.735 52.9114 198.378 52.7176 199.036 52.7176C199.474 52.7152 199.907 52.7991 200.312 52.9644C200.716 53.1296 201.084 53.373 201.393 53.6803C201.702 53.9876 201.947 54.3529 202.113 54.7549C202.28 55.1569 202.364 55.5877 202.362 56.0224Z" fill="#455A64"/>
<path d="M225.072 142.406H204.763V148.539H225.072V142.406Z" fill="#EBEBEB"/>
<path d="M699.134 142.406H249.026V148.539H699.134V142.406Z" fill="#EBEBEB"/>
<path d="M750.191 142.406H711.618V148.539H750.191V142.406Z" fill="#48548B"/>
<path d="M225.072 171.407H204.763V177.539H225.072V171.407Z" fill="#EBEBEB"/>
<path d="M421.671 171.407H268.82V177.539H421.671V171.407Z" fill="#A6A6A6"/>
<path d="M764.169 287.446H706.354V293.578H764.169V287.446Z" fill="#A6A6A6"/>
<path d="M395.031 258.427H249.026V264.559H395.031V258.427Z" fill="#A6A6A6"/>
<path d="M371.254 200.425H268.82V206.558H371.254V200.425Z" fill="#48548B"/>
<path d="M763.369 200.425H382.618V206.558H763.369V200.425Z" fill="#A6A6A6"/>
<path d="M693.141 287.446H249.026V293.578H693.141V287.446Z" fill="#48548B"/>
<path d="M745.888 171.407H431.275V177.539H745.888V171.407Z" fill="#EBEBEB"/>
<path d="M225.072 200.425H204.763V206.558H225.072V200.425Z" fill="#EBEBEB"/>
<path d="M225.072 229.426H204.763V235.559H225.072V229.426Z" fill="#A6A6A6"/>
<path d="M369.031 229.426H249.026V235.559H369.031V229.426Z" fill="#EBEBEB"/>
<path d="M388.825 316.446H268.82V322.579H388.825V316.446Z" fill="#EBEBEB"/>
<path d="M699.276 345.465H377.336V351.597H699.276V345.465Z" fill="#EBEBEB"/>
<path d="M359.019 345.465H268.82V351.597H359.019V345.465Z" fill="#A6A6A6"/>
<path d="M750.173 258.427H403.283V264.559H750.173V258.427Z" fill="#EBEBEB"/>
<path d="M727.979 229.426H381.231V235.559H727.979V229.426Z" fill="#48548B"/>
<path d="M225.072 258.427H204.763V264.559H225.072V258.427Z" fill="#EBEBEB"/>
<path d="M225.072 287.446H204.763V293.578H225.072V287.446Z" fill="#EBEBEB"/>
<path d="M225.072 316.446H204.763V322.579H225.072V316.446Z" fill="#A6A6A6"/>
<path d="M225.072 345.465H204.763V351.597H225.072V345.465Z" fill="#EBEBEB"/>
<path d="M225.072 371.797H204.763V377.93H225.072V371.797Z" fill="#EBEBEB"/>
<path d="M487.116 371.797H249.026V377.93H487.116V371.797Z" fill="#EBEBEB"/>
<path d="M217.353 113.988L221.728 103.632C221.779 103.513 221.852 103.405 221.945 103.315C222.038 103.224 222.148 103.153 222.269 103.105C222.39 103.057 222.519 103.034 222.649 103.037C222.779 103.039 222.908 103.067 223.026 103.12C223.144 103.168 223.25 103.239 223.339 103.328C223.429 103.418 223.499 103.524 223.547 103.64C223.595 103.757 223.62 103.882 223.619 104.008C223.618 104.134 223.592 104.259 223.542 104.374L219.15 114.748C219.073 114.923 218.946 115.072 218.784 115.176C218.623 115.279 218.435 115.334 218.243 115.332C218.125 115.356 218.004 115.356 217.887 115.332C217.757 115.286 217.638 115.214 217.539 115.119C217.439 115.024 217.362 114.909 217.311 114.781C217.26 114.654 217.238 114.517 217.245 114.38C217.253 114.243 217.29 114.11 217.353 113.988Z" fill="#48548B"/>
<path d="M232.185 109.8L232.061 109.942L227.01 114.996C226.795 115.201 226.508 115.316 226.21 115.316C225.911 115.316 225.625 115.201 225.409 114.996C225.303 114.892 225.218 114.769 225.161 114.632C225.103 114.495 225.073 114.349 225.073 114.201C225.073 114.053 225.103 113.906 225.161 113.769C225.218 113.633 225.303 113.509 225.409 113.405L229.624 109.164L225.392 104.923C225.285 104.819 225.201 104.695 225.143 104.559C225.085 104.422 225.055 104.275 225.055 104.127C225.055 103.979 225.085 103.833 225.143 103.696C225.201 103.559 225.285 103.436 225.392 103.332C225.607 103.127 225.894 103.012 226.192 103.012C226.49 103.012 226.777 103.127 226.992 103.332L232.025 108.386L232.15 108.51C232.182 108.561 232.212 108.614 232.238 108.669C232.233 108.722 232.233 108.775 232.238 108.828V108.952V109.093C232.236 109.146 232.236 109.199 232.238 109.252L232.185 109.8Z" fill="#48548B"/>
<path d="M503.121 358.313H500.347V391.414H503.121V358.313Z" fill="#EBEBEB"/>
<path d="M371.335 768.725C371.335 768.725 417.475 748.343 425.069 744.896C440.305 737.99 467.588 716.712 479.261 709.223C486.082 704.844 480.632 690.041 459.888 692.557C439.145 695.073 400.47 715.151 397.141 710.83C393.813 706.509 447.536 674.435 455.072 671.85C462.607 669.264 487.488 679.327 502.525 674.179C517.561 669.031 509.72 655.754 497.743 650.758C481.874 644.131 451.65 639.904 440.528 639.904C429.406 639.904 395.184 664.641 395.184 664.641C395.184 664.641 441.336 646.6 447.044 643.258C452.751 639.915 480.222 639.391 497.591 633.207C514.959 627.023 503.614 609.344 474.573 609.6C457.498 609.584 440.455 611.057 423.64 614.002C415.436 615.237 365.885 647.847 365.885 647.847C365.885 647.847 375.484 645.785 379.374 644.492C383.265 643.2 421.917 618.998 427.284 616.18C447.548 605.524 461.881 591.268 455.412 582.277C450.724 575.744 423.675 584.094 410.502 591.594C392.993 601.552 343.36 638.064 343.36 638.064L405.568 596.334C405.568 596.334 400.54 592.188 383.828 595.845C373.948 598.012 333.433 622.073 326.999 626.953C307.545 641.686 255.228 705.089 255.228 705.089L298.017 759.652L371.335 768.725Z" fill="#C4C6FD"/>
<path d="M346.267 636.608C360.94 624.426 372.905 610.695 404.138 595.845C404.244 595.845 404.138 595.531 404.021 595.554C381.754 601.214 360.74 619.208 345.786 635.956C345.294 636.573 345.681 637.085 346.267 636.608Z" fill="#263238"/>
<path d="M368.147 647.555C381.144 639.845 396.18 629.492 411.709 621.933C419.327 618.218 422.608 617.461 433.519 612.721C433.625 612.721 433.519 612.441 433.426 612.465C423.546 614.957 421.917 614.666 411.311 618.649C397.505 623.831 374.851 640.509 367.702 647.054C367.139 647.567 367.456 647.951 368.147 647.555Z" fill="#263238"/>
<path d="M392.161 663.557C406.224 657.921 423.3 647.8 437.809 643.141C441.442 641.977 446.997 641.231 455.306 641.231C455.751 641.231 456.302 640.742 455.248 640.556C448.216 639.275 441.243 639.391 436.906 640.556C422.679 644.504 399.872 657.606 391.809 662.987C391.176 663.429 391.422 663.86 392.161 663.557Z" fill="#263238"/>
<path d="M371.335 768.736L342.657 814.227H131L255.181 705.088L361.244 693.454L371.335 768.736Z" fill="#C4C6FD"/>
<path d="M342.657 814.227L350.239 802.185L191.872 760.723L131 814.227H342.657Z" fill="#48548B"/>
<path opacity="0.1" d="M342.657 814.227L350.239 802.185L191.872 760.723L131 814.227H342.657Z" fill="black"/>
<path opacity="0.1" d="M132.371 813.016L138.325 807.775V814.215H132.371V813.016Z" fill="black"/>
<path opacity="0.1" d="M341.122 799.797V814.215H335.168V798.236L341.122 799.797Z" fill="black"/>
<path opacity="0.1" d="M300.56 789.176L319.944 794.253H300.56V814.215H294.606V794.253H259.998V814.215H254.045V794.253H219.436V814.215H213.483V794.253H178.886V814.215H172.933V794.253H153.713L160.451 788.337H172.933V777.366L178.886 772.137V788.337H213.483V766.384L219.436 767.944V788.337H254.045V777.005L259.998 778.554V788.337H294.606V787.615L297.349 788.337H300.56V789.176Z" fill="black"/>
<path d="M164.038 779.463L350.24 808.893L367.421 782.56L201.423 745.991L164.038 779.463Z" fill="#48548B"/>
<path d="M686.183 744.71C686.183 744.71 644.133 723.979 636.246 721.277C620.448 715.85 596.211 693.163 583.859 686.827C576.651 683.123 580.648 667.867 601.544 668.391C622.44 668.915 645.622 686.093 646.653 684.37C649.477 679.711 601.192 658.13 593.457 656.278C585.722 654.427 561.556 660.727 546.087 657.035C530.617 653.344 537.144 639.391 548.583 633.265C563.736 625.113 593.774 624.158 604.837 623.086C615.9 622.015 652.36 643.386 652.36 643.386C652.36 643.386 604.685 629.841 598.673 627.081C592.66 624.321 565.272 626.405 547.387 621.91C529.503 617.414 539.09 598.734 568.014 596.218C585.012 594.586 602.122 594.438 619.147 595.775C627.479 596.218 679.901 623.948 679.901 623.948C679.901 623.948 670.151 622.783 666.154 621.898C662.158 621.013 621.338 600.585 615.76 598.291C594.536 589.545 578.902 576.733 584.504 567.195C588.582 560.207 616.264 565.972 630.093 572.168C648.493 580.414 701.419 612.01 701.419 612.01L630.925 574.858C630.925 574.858 634.171 568.208 644.239 569.175C680.206 572.669 709.763 595.1 716.643 599.351C737.433 612.162 795.645 670.277 795.645 670.277L759.244 725.807L686.183 744.71Z" fill="#C4C6FD"/>
<path d="M702.075 607.468C685.797 597.872 664.924 585.119 632.437 573.088C632.331 573.088 632.367 572.855 632.437 572.878C654.622 577.781 684.918 591.955 702.356 607.037C702.978 607.491 702.743 607.841 702.075 607.468Z" fill="#263238"/>
<path d="M677.628 623.785C663.951 617.368 647.977 608.493 631.792 602.449C623.846 599.479 620.518 599.036 609.197 595.356C609.08 595.356 609.138 595.077 609.267 595.1C619.346 596.637 620.928 596.183 631.874 599.141C646.114 602.985 670.28 617.415 678.026 623.249C678.636 623.704 678.355 624.123 677.628 623.785Z" fill="#263238"/>
<path d="M655.267 642.023C640.758 637.737 622.756 629.294 607.861 626.056C604.134 625.241 589.402 624.67 581.128 625.462C580.683 625.462 580.097 625.078 581.128 624.787C588.043 622.83 604.099 622.62 608.529 623.401C623.061 625.974 647.04 636.841 655.583 641.429C656.251 641.79 656.04 642.244 655.267 642.023Z" fill="#263238"/>
<path d="M945 814.413L795.645 670.277L701.712 674.354L686.183 744.709L728.643 814.413H945Z" fill="#C4C6FD"/>
<path d="M728.643 814.413L703.306 772.824L833.722 707.022L945 814.413H728.643Z" fill="#48548B"/>
<path opacity="0.1" d="M728.643 814.413L703.306 772.824L833.722 707.022L945 814.413H728.643Z" fill="black"/>
<path opacity="0.1" d="M840.578 713.637H820.654L832.374 707.721H834.507L839.382 712.379L840.578 713.637ZM876.206 748.029H752.247V748.134L740.726 753.957H882.335L879.874 751.627L876.206 748.029ZM917.974 788.337H712.752L716.361 794.253H924.104L920.436 790.759L917.974 788.337ZM917.974 788.337L914.458 784.971V814.425H920.412V790.713L917.974 788.337ZM876.206 748.029L873.862 745.816V814.425H879.815V751.534L876.206 748.029ZM834.507 707.721L833.78 707.022L833.335 707.173V814.39H839.3V712.426L834.507 707.721ZM792.867 727.659V814.425H798.821V724.643L792.867 727.659ZM752.47 748.029H752.27V814.413H758.224V745.117L752.47 748.029ZM711.685 768.596V786.578L712.752 788.337L716.361 794.253L717.639 796.361V765.591L711.685 768.596Z" fill="black"/>
<path d="M693.285 769.132L715.892 802.184L874.119 738.315L831.249 700.197L693.285 769.132Z" fill="#48548B"/>
<rect x="160.5" y="67.5" width="720" height="436" rx="1.5" fill="#48548B" stroke="black"/>
<path d="M160.5 69C160.5 68.1716 161.172 67.5 162 67.5H579C583.142 67.5 586.5 70.8579 586.5 75V496C586.5 500.142 583.142 503.5 579 503.5H162C161.172 503.5 160.5 502.828 160.5 502V69Z" fill="white" stroke="black"/>
</svg>
