<svg width="1129" height="1505" viewBox="0 0 1129 1505" fill="none" xmlns="http://www.w3.org/2000/svg">
<path d="M825.073 1505L764.071 1304.6C764.071 1304.6 616.613 1182.81 595 1086.56L901.77 951L1053.16 1418.52L1128 1505H825.073Z" fill="#C4C6FD"/>
<path d="M586 1082H839.91L886 1192.55C886 1192.55 709.484 1231.81 653.624 1192.55C653.495 1192.55 604.256 1138.62 586 1082Z" fill="url(#paint0_linear_374_227)"/>
<path d="M780.05 0H349.08C306.51 0 272 34.5099 272 77.08V1024.39C272 1066.96 306.51 1101.47 349.08 1101.47H780.05C822.62 1101.47 857.13 1066.96 857.13 1024.39V77.08C857.13 34.5099 822.62 0 780.05 0Z" fill="#263238"/>
<path d="M828.02 81.8301L828.02 1011.83C828.02 1041.93 803.62 1066.33 773.52 1066.33L355.52 1066.33C325.421 1066.33 301.02 1041.93 301.02 1011.83L301.02 81.8301C301.02 51.7306 325.421 27.33 355.52 27.33L773.52 27.3301C803.62 27.3301 828.02 51.7306 828.02 81.8301Z" fill="#48548B" stroke="black"/>
<path d="M828.02 81.8301L828.02 841.83C828.02 845.972 824.662 849.33 820.52 849.33L308.52 849.33C304.378 849.33 301.02 845.972 301.02 841.83L301.02 81.83C301.02 51.7305 325.421 27.33 355.52 27.33L773.52 27.3301C803.62 27.3301 828.02 51.7306 828.02 81.8301Z" fill="white" stroke="black"/>
<path d="M1129 1505C1129 1505 1039.5 1341.68 1030.89 1238.72C1022.27 1135.76 1025.71 1049.9 1005.07 996.576C984.433 943.247 937.946 792.126 922.451 750.896C906.956 709.666 904.217 668.436 898.707 661.57C893.197 654.704 847.412 649.104 841.535 731.931C837.794 783.593 872.525 888.284 855.293 956.979C838.062 1025.67 797.32 1062.07 803.665 1121.9C810.678 1187.46 946.748 1271.55 1014.97 1505H1129Z" fill="url(#paint1_linear_374_227)"/>
<defs>
<linearGradient id="paint0_linear_374_227" x1="741.239" y1="1191.67" x2="726.238" y2="1040.98" gradientUnits="userSpaceOnUse">
<stop stop-color="#C4C6FD"/>
<stop offset="1" stop-color="#48548B"/>
</linearGradient>
<linearGradient id="paint1_linear_374_227" x1="935.442" y1="1094.07" x2="1197.76" y2="1047.66" gradientUnits="userSpaceOnUse">
<stop stop-color="#C4C6FD"/>
<stop offset="1" stop-color="#48548B"/>
</linearGradient>
</defs>
</svg>
