<svg width="770" height="1155" viewBox="0 0 770 1155" fill="none" xmlns="http://www.w3.org/2000/svg">
<g clip-path="url(#clip0_372_180)">
<path d="M202.5 1083.8L232.949 990.574C232.949 990.574 304.31 933.356 315.328 887.454L169.64 820.413L93.9379 1043.03L52.7937 1083.8L202.5 1083.8Z" fill="#C4C6FD"/>
<path d="M313.865 892.545L192.219 890.734L169.357 942.868C169.357 942.868 253.647 962.759 280.687 944.525C280.748 944.526 304.719 919.285 313.865 892.545Z" fill="url(#paint0_linear_372_180)"/>
<path d="M581.5 1094.85L552.334 998.952C552.334 998.952 481.833 940.678 471.5 894.617L618.169 829.752L690.549 1053.47L731.113 1094.85H581.5Z" fill="#C4C6FD"/>
<path d="M472.886 899.729H594.546L616.629 952.197C616.629 952.197 532.053 970.831 505.287 952.197C505.226 952.197 481.633 926.602 472.886 899.729Z" fill="url(#paint1_linear_372_180)"/>
<path d="M608.054 886.563L608.054 269.269C608.054 261.904 602.083 255.933 594.718 255.933L190.883 255.933C183.518 255.933 177.547 261.904 177.547 269.269L177.547 886.563C177.547 893.928 183.518 899.899 190.883 899.899L594.718 899.899C602.083 899.899 608.054 893.928 608.054 886.563Z" fill="#263238"/>
<path d="M584.153 878.524L584.153 277.293L201.448 277.293L201.448 878.524L584.153 878.524Z" fill="#170B4C"/>
<path d="M731.082 1094.85C731.082 1094.85 689.81 1019.39 685.837 971.817C681.864 924.247 683.45 884.576 673.933 859.936C664.416 835.296 642.979 765.473 635.833 746.423C628.688 727.373 627.425 708.323 624.884 705.151C622.343 701.978 601.23 699.391 598.519 737.66C596.794 761.53 612.81 809.902 604.864 841.641C596.918 873.38 578.13 890.197 581.056 917.84C584.29 948.132 647.038 986.986 678.5 1094.85H731.082Z" fill="url(#paint2_linear_372_180)"/>
<path d="M52.7937 1083.8C52.7937 1083.8 95.1843 1008.96 99.8651 961.455C104.546 913.949 103.55 874.259 113.433 849.764C123.316 825.268 145.79 755.771 153.218 736.83C160.646 717.889 162.193 698.86 164.781 695.725C167.369 692.591 188.456 690.348 190.658 728.655C192.027 752.548 175.293 800.675 182.766 832.529C190.24 864.384 208.776 881.447 205.438 909.044C201.754 939.284 132.883 976.417 99.8651 1083.8L52.7937 1083.8Z" fill="url(#paint3_linear_372_180)"/>
</g>
<rect x="584.101" y="277.331" width="601" height="383" rx="1.5" transform="rotate(90 584.101 277.331)" fill="#48548B" stroke="black"/>
<path d="M584.5 279L584.5 745C584.5 749.142 581.142 752.5 577 752.5L208 752.5C203.858 752.5 200.5 749.142 200.5 745L200.5 279C200.5 278.172 201.172 277.5 202 277.5L583 277.5C583.828 277.5 584.5 278.172 584.5 279Z" fill="white" stroke="black"/>
<defs>
<linearGradient id="paint0_linear_372_180" x1="238.717" y1="943.484" x2="246.834" y2="872.064" gradientUnits="userSpaceOnUse">
<stop stop-color="#C4C6FD"/>
<stop offset="1" stop-color="#48548B"/>
</linearGradient>
<linearGradient id="paint1_linear_372_180" x1="547.268" y1="951.781" x2="540.215" y2="880.248" gradientUnits="userSpaceOnUse">
<stop stop-color="#C4C6FD"/>
<stop offset="1" stop-color="#48548B"/>
</linearGradient>
<linearGradient id="paint2_linear_372_180" x1="641.824" y1="904.981" x2="762.806" y2="883.621" gradientUnits="userSpaceOnUse">
<stop stop-color="#C4C6FD"/>
<stop offset="1" stop-color="#48548B"/>
</linearGradient>
<linearGradient id="paint3_linear_372_180" x1="144.868" y1="895.282" x2="24.2171" y2="872.123" gradientUnits="userSpaceOnUse">
<stop stop-color="#C4C6FD"/>
<stop offset="1" stop-color="#48548B"/>
</linearGradient>
<clipPath id="clip0_372_180">
<rect width="1155" height="770" fill="white" transform="translate(6.10352e-05 1155) rotate(-90)"/>
</clipPath>
</defs>
</svg>
