<svg width="17" height="20" viewBox="0 0 17 20" fill="none" xmlns="http://www.w3.org/2000/svg">
<path fill-rule="evenodd" clip-rule="evenodd" d="M6.62739 18.001C6.63229 18.1238 6.61977 18.2437 6.59534 18.365C6.55241 18.5782 6.46951 18.8038 6.35216 19.0122C6.01856 19.6046 5.45185 20 4.72222 20C3.00343 20 2.32885 19.1073 1.48422 16.8719C0.912178 15.3579 0.642315 15.0007 0 15.0007L0 13.001C1.7188 13.001 2.39338 13.8937 3.23801 16.1292C3.81004 17.6432 4.07991 18.0003 4.72222 18.0003C4.72222 17.7102 4.71847 17.4532 4.71057 17.1052C4.69206 16.2895 4.68993 16.123 4.72354 15.9049C4.73698 15.4289 4.85306 15.0911 5.08583 14.7559C2.97801 14.2701 1.55637 13.2669 0.74042 11.6397L0.434763 10.8787C0.136987 9.97274 0 8.94622 0 7.76069C0 6.39533 0.393216 5.17454 1.12768 4.15406C0.89857 3.18406 0.929948 1.99893 1.43585 0.660505L1.60115 0.223164L2.02495 0.0796481C2.08169 0.0604332 2.15067 0.0430788 2.23171 0.0296136C3.05694 -0.107506 4.23121 0.219647 5.76635 1.26066C6.67134 1.03857 7.62436 0.926438 8.58384 0.926438C9.44127 0.926438 10.2939 1.01795 11.1082 1.19836C12.6018 0.208176 13.7438 -0.102386 14.5468 0.0297894C14.6269 0.0429745 14.6952 0.0599966 14.7515 0.0788885L15.1779 0.222053L15.3434 0.662061C15.786 1.83863 15.8619 2.92294 15.7009 3.87172C16.5452 4.94428 17 6.26286 17 7.76069C17 9.02344 16.9145 9.97296 16.6689 10.8967L16.4096 11.65C15.7309 13.2754 14.2342 14.2899 11.926 14.7731C12.1659 15.1248 12.2778 15.4818 12.2778 16.0006V17.0004C12.2778 17.485 12.2778 17.4999 12.2767 18.0003C12.2789 18.0362 12.2817 18.0538 12.2848 18.0648L12.2778 20C11.4733 20 10.8752 19.5847 10.581 18.9295C10.4284 18.5898 10.3829 18.2654 10.3889 17.9861V16.0006C10.3889 15.9168 10.3861 15.9119 10.1933 15.7077C9.67781 15.162 9.44445 14.7503 9.44445 14.0009V13.0964L10.2945 13.006C12.8249 12.737 14.2012 11.9931 14.6575 10.9062L14.8707 10.2891C15.0404 9.64381 15.1111 8.85796 15.1111 7.76069C15.1111 6.59477 14.7266 5.63164 13.9995 4.86215L13.5998 4.43919L13.7629 3.86639C13.9079 3.35752 13.9423 2.75539 13.789 2.06859C13.7635 2.07543 13.737 2.08288 13.7095 2.09098C13.2038 2.24002 12.5725 2.55984 11.8116 3.09824L11.4646 3.3438L11.0595 3.23745C10.2759 3.03175 9.43392 2.92615 8.58384 2.92615C7.63854 2.92615 6.7041 3.05347 5.84088 3.30261L5.41961 3.4242L5.05922 3.16319C4.27231 2.59329 3.61859 2.25438 3.0944 2.09606C3.05696 2.08475 3.02132 2.07464 2.98743 2.06562C2.80455 2.86049 2.87688 3.51354 3.06211 4.00357L3.2842 4.59114L2.87761 5.05508C2.22974 5.79435 1.88889 6.69399 1.88889 7.76069C1.88889 8.73731 1.99688 9.54655 2.19478 10.1561L2.44192 10.7755C3.05975 12.0028 4.37203 12.7412 6.71177 13.0067L7.55556 13.1025V14.0009C7.55556 14.7503 7.32219 15.162 6.80671 15.7077C6.61386 15.9119 6.61111 15.9168 6.61111 16.0006L6.59483 16.1854C6.58406 16.246 6.58406 16.4026 6.59892 17.0571C6.60575 17.3582 6.60964 17.5964 6.61077 17.8454C6.62205 17.897 6.62376 17.9302 6.62739 18.001Z" fill="white"/>
</svg>
