<svg width="91" height="91" viewBox="0 0 91 91" fill="none" xmlns="http://www.w3.org/2000/svg">
<path d="M90.5 45.5C90.5 70.3528 70.3528 90.5 45.5 90.5C20.6472 90.5 0.5 70.3528 0.5 45.5C0.5 20.6472 20.6472 0.5 45.5 0.5C70.3528 0.5 90.5 20.6472 90.5 45.5Z" fill="white" stroke="black"/>
<path d="M31.9469 61.3567L29 26.5H61.3983L58.4514 61.3379L45.1724 65.215" fill="#48548B"/>
<path d="M45.1992 62.2507V29.3608H58.4424L55.9152 59.0981" fill="#48548B"/>
<path d="M35.0189 33.6238H45.1991V37.8962H39.466L39.8411 42.2721H45.1991V46.5351H36.1262M36.3048 48.6807H40.3769L40.6627 52.0967L45.1991 53.3765V57.8371L36.8763 55.3904" fill="#F6F6F6"/>
<path d="M55.3438 33.6238H45.1813V37.8962H54.9687M54.6026 42.2721H45.1813V46.5445H50.1822L49.7089 52.0967L45.1813 53.3765V57.8183L53.4863 55.3904" fill="#F6F6F6"/>
</svg>
