<svg width="91" height="91" viewBox="0 0 91 91" fill="none" xmlns="http://www.w3.org/2000/svg">
<circle cx="45.5" cy="45.5" r="45" fill="white" stroke="black"/>
<g clip-path="url(#clip0_327_4)">
<path d="M64.8748 26H25V65.8748H64.8748V26Z" fill="#48548B"/>
<path d="M63.8779 27.1165H25.9969V64.7584H63.8779V27.1165Z" fill="#F6F6F6"/>
<path d="M43.3424 44.6215C43.3424 44.6215 43.5019 56.4245 43.2627 57.6606C42.505 59.774 39.5543 58.4182 39.0359 57.1023L36.1649 58.8967C37.4011 61.9272 42.3854 63.4026 45.4159 60.7708C46.6919 59.8138 46.8514 57.4213 46.8514 57.4213V44.6614H43.3424V44.6215Z" fill="#48548B"/>
<path d="M60.2095 47.333C59.731 46.695 59.1727 45.7779 58.455 45.3792C57.817 45.0602 56.8999 44.6215 56.1821 44.5817C55.4644 44.5817 53.7497 44.5418 53.0719 44.8608C50.8389 45.5387 49.6825 47.7318 49.8819 50.0047C50.0813 51.6395 51.0781 52.9554 52.4339 53.8326C53.8694 54.67 55.7834 55.1086 57.0992 56.1454C57.2587 56.3049 57.6176 56.7036 57.6176 56.9827C57.6575 57.2619 57.6176 57.8201 57.5379 58.0992C57.3784 58.3385 56.9397 58.7372 56.6207 58.8569C54.8264 59.6145 52.5535 58.7372 51.7161 56.9827L48.8053 58.6575C49.4831 60.093 51.118 61.4487 52.6731 61.9272C53.7099 62.326 55.265 62.2462 56.3815 62.2462C58.2556 62.0468 60.2892 61.0101 60.9671 59.1759C61.2462 58.6176 61.1266 56.8232 61.1665 56.2251C61.0468 55.3479 60.4886 54.3111 59.8107 53.7529C58.2157 52.1978 55.584 51.6794 53.8295 50.4034C53.351 49.885 53.2712 49.0078 53.6301 48.4097C54.1086 47.7717 55.1055 47.6122 55.8232 47.8115C56.541 47.971 56.9796 48.6888 57.3784 49.2869L60.2095 47.333Z" fill="#48548B"/>
</g>
<defs>
<clipPath id="clip0_327_4">
<rect width="39.8748" height="39.8748" fill="white" transform="translate(25 26)"/>
</clipPath>
</defs>
</svg>
