<svg width="91" height="91" viewBox="0 0 91 91" fill="none" xmlns="http://www.w3.org/2000/svg">
<path d="M90.5 45.5C90.5 70.3528 70.3528 90.5 45.5 90.5C20.6472 90.5 0.5 70.3528 0.5 45.5C0.5 20.6472 20.6472 0.5 45.5 0.5C70.3528 0.5 90.5 20.6472 90.5 45.5Z" fill="white" stroke="black"/>
<path d="M55.0748 40.7505C52.5564 30.3841 47.3074 27.6245 45.9685 25.6737C45.4163 24.8143 44.9272 23.9211 44.5045 23C44.4337 23.9209 44.3038 24.5011 43.4649 25.1994C41.7805 26.6007 34.6266 32.0402 34.0246 43.8187C33.4637 54.8005 42.6769 61.5722 43.8942 62.2721C44.8302 62.7019 45.9701 62.2813 46.5261 61.8869C50.9674 59.0428 57.0356 51.4607 55.0798 40.7505" fill="#48548B"/>
<path d="M44.8362 56.8168C44.5817 59.5575 44.3994 61.1499 43.7532 62.7161C43.7532 62.7161 44.1774 65.3252 44.4752 68.0891H45.5293C45.7808 66.1428 46.1647 64.2108 46.6791 62.3029C45.3145 61.7272 44.8885 59.2217 44.8362 56.8168Z" fill="#D2D2D2"/>
<path d="M46.6549 62.453C45.4108 61.8997 45.0509 59.3088 44.9956 56.895C45.3032 52.9133 45.3929 48.9187 45.2643 44.9279C45.1991 42.8338 45.2952 25.5329 44.7285 23C45.1162 23.8579 45.5628 24.6899 46.0654 25.4906C47.391 27.4843 52.5888 30.3025 55.0803 40.8887C57.0213 51.8072 51.0467 59.5298 46.6549 62.453Z" fill="#252F50"/>
</svg>
