<svg width="91" height="91" viewBox="0 0 91 91" fill="none" xmlns="http://www.w3.org/2000/svg">
<circle cx="45.5" cy="45.5" r="45" fill="white" stroke="black"/>
<g clip-path="url(#clip0_327_5)">
<path d="M63.3216 48.9636C61.5258 48.9729 59.965 49.401 58.6581 50.0339C58.1786 49.0939 57.6991 48.2563 57.6145 47.6421C57.5204 46.9255 57.4076 46.488 57.5204 45.6318C57.6333 44.7756 58.141 43.5564 58.1316 43.4634C58.1222 43.3703 58.0188 42.9329 56.9845 42.9236C55.9503 42.9143 55.0571 43.119 54.9536 43.3889C54.8502 43.6588 54.6528 44.273 54.5211 44.9059C54.3425 45.8366 52.4527 49.1591 51.3714 50.8994C51.0235 50.22 50.7227 49.6244 50.6569 49.1498C50.5628 48.4331 50.45 47.9957 50.5628 47.1395C50.6757 46.2833 51.1834 45.0641 51.174 44.971C51.1646 44.878 51.0612 44.4406 50.0269 44.4313C48.9927 44.4219 48.0995 44.6267 47.9961 44.8966C47.8926 45.1665 47.7798 45.7993 47.5636 46.4136C47.3473 47.0278 44.8369 52.5746 44.1788 54.0079C43.8403 54.7431 43.5488 55.3294 43.342 55.7296C43.342 55.7296 43.3326 55.7575 43.3044 55.8041C43.1257 56.1484 43.0223 56.3345 43.0223 56.3345C43.0223 56.3345 43.0223 56.3345 43.0223 56.3438C42.8813 56.5951 42.7309 56.8278 42.6556 56.8278C42.5992 56.8278 42.4958 56.1577 42.6744 55.2457C43.0505 53.3192 43.9437 50.3224 43.9343 50.22C43.9343 50.1642 44.1036 49.643 43.3514 49.3731C42.618 49.1032 42.3548 49.5499 42.289 49.5499C42.2231 49.5499 42.1761 49.7082 42.1761 49.7082C42.1761 49.7082 42.9941 46.3391 40.6154 46.3391C39.1298 46.3391 37.0802 47.9492 36.0647 49.401C35.4254 49.7454 34.0621 50.4806 32.6047 51.2717C32.05 51.5788 31.4765 51.8859 30.9406 52.1744C30.9029 52.1372 30.8653 52.0907 30.8277 52.0535C27.9507 49.0102 22.6291 46.8603 22.8547 42.7747C22.9393 41.2856 23.4564 37.3768 33.0748 32.6303C40.9915 28.768 47.2909 29.8383 48.3815 32.2115C49.9423 35.5992 45.0062 41.8905 36.8263 42.8026C33.7048 43.1469 32.0688 41.9557 31.6551 41.5089C31.2226 41.0436 31.1568 41.0157 30.997 41.1088C30.7337 41.2484 30.9029 41.6672 30.997 41.9091C31.2414 42.542 32.2475 43.6588 33.9492 44.2079C35.4536 44.6918 39.111 44.9617 43.5394 43.2679C48.4944 41.3693 52.3681 36.0924 51.2304 31.6717C50.0927 27.1859 42.571 25.7061 35.4536 28.2096C31.2226 29.6987 26.6344 32.044 23.3342 35.0966C19.4135 38.7262 18.793 41.8812 19.0468 43.2028C19.9588 47.8933 26.4933 50.946 29.1071 53.2075C28.9755 53.2819 28.8533 53.3471 28.7499 53.4029C27.443 54.0451 22.4598 56.623 21.2187 59.3499C19.8084 62.4397 21.4444 64.6547 22.5256 64.9526C25.8822 65.8739 29.3328 64.2173 31.185 61.4812C33.0372 58.745 32.8116 55.1898 31.956 53.5611C31.9466 53.5425 31.9372 53.5239 31.9184 53.5053C32.2569 53.3099 32.6047 53.1051 32.9432 52.9097C33.6108 52.5188 34.2689 52.1558 34.833 51.858C34.5134 52.7235 34.2783 53.7566 34.1655 55.2457C34.0245 56.9953 34.7484 59.2662 35.698 60.1596C36.1211 60.5505 36.6195 60.5598 36.9391 60.5598C38.0486 60.5598 38.5469 59.6477 39.1016 58.5682C39.7786 57.2466 40.3897 55.711 40.3897 55.711C40.3897 55.711 39.6281 59.8618 41.6966 59.8618C42.4488 59.8618 43.2104 58.8939 43.5488 58.4006C43.5488 58.4099 43.5488 58.4099 43.5488 58.4099C43.5488 58.4099 43.5676 58.382 43.6053 58.3169C43.6805 58.1959 43.7275 58.1214 43.7275 58.1214C43.7275 58.1214 43.7275 58.1121 43.7275 58.1028C44.0284 57.5816 44.7053 56.3997 45.7113 54.436C47.0088 51.9045 48.2593 48.7403 48.2593 48.7403C48.2593 48.7403 48.3721 49.5127 48.7576 50.797C48.9833 51.5509 49.4534 52.3792 49.8295 53.1796C49.5286 53.5984 49.3406 53.831 49.3406 53.831C49.3406 53.831 49.3406 53.831 49.35 53.8403C49.1055 54.1568 48.8423 54.5011 48.5508 54.8362C47.5259 56.046 46.3037 57.4327 46.1344 57.8329C45.937 58.3076 45.984 58.6519 46.3601 58.9311C46.6327 59.1359 47.1217 59.1638 47.62 59.1359C48.5414 59.0707 49.1901 58.8474 49.5098 58.7078C50.0081 58.5309 50.5911 58.261 51.1364 57.8608C52.1424 57.1256 52.7535 56.074 52.6971 54.6873C52.6689 53.9241 52.4151 53.1609 52.1048 52.4443C52.1988 52.314 52.2834 52.1837 52.3775 52.0535C53.9664 49.7547 55.1981 47.2326 55.1981 47.2326C55.1981 47.2326 55.3109 48.005 55.6964 49.2894C55.8845 49.9408 56.27 50.6481 56.6084 51.3368C55.1135 52.5374 54.1921 53.9334 53.863 54.8455C53.2707 56.5393 53.7314 57.3024 54.6058 57.4793C55.0007 57.563 55.5648 57.3769 55.9785 57.2001C56.505 57.0325 57.1255 56.744 57.7179 56.3159C58.7239 55.5807 59.6923 54.557 59.6359 53.1703C59.6077 52.5374 59.4385 51.9139 59.2034 51.3089C60.4727 50.7877 62.1087 50.4992 64.196 50.7412C68.6714 51.2624 69.5552 54.0265 69.386 55.1898C69.2167 56.3532 68.2765 56.986 67.9662 57.1815C67.656 57.3769 67.5525 57.442 67.5807 57.5816C67.6184 57.7864 67.7688 57.7771 68.032 57.7399C68.3987 57.6747 70.3826 56.7999 70.4672 54.6593C70.6082 51.9232 67.9756 48.9357 63.3216 48.9636ZM28.7969 60.4853C27.3113 62.0861 25.2429 62.691 24.3496 62.1792C23.3906 61.6301 23.7667 59.2662 25.5907 57.5723C26.7002 56.5393 28.1293 55.5807 29.0789 54.9944C29.2952 54.8641 29.6149 54.6779 30.0003 54.4453C30.0662 54.408 30.1038 54.3894 30.1038 54.3894C30.179 54.3429 30.2542 54.2964 30.3294 54.2498C30.997 56.6696 30.3576 58.8008 28.7969 60.4853ZM39.6093 53.2075C39.0922 54.4546 38.011 57.6468 37.3528 57.47C36.7887 57.3211 36.4408 54.9013 37.24 52.5095C37.6443 51.3089 38.4999 49.8757 38.9982 49.3173C39.8068 48.4238 40.7 48.126 40.9162 48.489C41.1889 48.9636 39.929 52.4257 39.6093 53.2075ZM48.532 57.4327C48.3157 57.5444 48.1089 57.6189 48.0149 57.563C47.949 57.5258 48.1089 57.3769 48.1089 57.3769C48.1089 57.3769 49.2277 56.1856 49.6696 55.6458C49.9235 55.3294 50.2244 54.9571 50.544 54.5383C50.544 54.5756 50.544 54.6221 50.544 54.6593C50.544 56.0833 49.1525 57.0419 48.532 57.4327ZM55.4144 55.8785C55.2545 55.7668 55.2827 55.3946 55.8186 54.2312C56.0255 53.7752 56.5144 53.012 57.3512 52.2768C57.4452 52.5746 57.511 52.8631 57.5016 53.133C57.4922 54.9292 56.1947 55.5993 55.4144 55.8785Z" fill="#48548B"/>
</g>
<defs>
<clipPath id="clip0_327_5">
<rect width="51.505" height="38.2134" fill="white" transform="translate(19 27)"/>
</clipPath>
</defs>
</svg>
