<svg xmlns="http://www.w3.org/2000/svg" xmlns:xlink="http://www.w3.org/1999/xlink" width="1920" zoomAndPan="magnify" viewBox="0 0 1440 809.999993" height="1080" preserveAspectRatio="xMidYMid meet" version="1.0"><defs><g/></defs><g fill="#000000" fill-opacity="1"><g transform="translate(177.989879, 566.485129)"><g><path d="M 384.953125 -106.515625 L 385.484375 0 L 357.375 0 L 359.53125 -170.3125 C 359.53125 -187.613281 355.203125 -201.035156 346.546875 -210.578125 C 337.898438 -220.128906 325.46875 -224.90625 309.25 -224.90625 C 296.28125 -224.90625 283.125 -221.210938 269.78125 -213.828125 C 256.445312 -206.441406 243.472656 -195.898438 230.859375 -182.203125 L 230.859375 -175.71875 L 230.3125 -106.515625 L 230.859375 0 L 202.75 0 L 204.90625 -170.3125 C 204.90625 -187.613281 200.578125 -201.035156 191.921875 -210.578125 C 183.273438 -220.128906 170.84375 -224.90625 154.625 -224.90625 C 129.03125 -224.90625 102.539062 -210.128906 75.15625 -180.578125 L 75.15625 -107.046875 L 76.234375 0 L 48.125 0 L 49.734375 -105.421875 L 48.65625 -243.84375 L 75.15625 -247.078125 L 75.15625 -207.609375 L 78.390625 -207.609375 C 90.648438 -219.503906 103.265625 -229.054688 116.234375 -236.265625 C 129.210938 -243.472656 141.832031 -247.800781 154.09375 -249.25 C 172.832031 -249.25 188.328125 -245.460938 200.578125 -237.890625 C 212.835938 -230.316406 221.488281 -219.503906 226.53125 -205.453125 L 229.234375 -205.453125 C 241.847656 -217.703125 255.09375 -227.613281 268.96875 -235.1875 C 282.851562 -242.757812 296.101562 -247.445312 308.71875 -249.25 C 333.582031 -249.25 352.59375 -242.847656 365.75 -230.046875 C 378.90625 -217.253906 385.484375 -199.144531 385.484375 -175.71875 Z M 384.953125 -106.515625 "/></g></g></g><g fill="#000000" fill-opacity="1"><g transform="translate(634.299682, 566.485129)"><g><path d="M 97.3125 -427.125 L 96.78125 -154.625 L 96.78125 141.65625 L 76.765625 142.734375 L 74.0625 138.953125 L 74.0625 -427.65625 L 95.15625 -429.28125 Z M 97.3125 -427.125 "/></g></g></g><g fill="#000000" fill-opacity="1"><g transform="translate(832.718737, 566.485129)"><g><path d="M 384.953125 -106.515625 L 385.484375 0 L 357.375 0 L 359.53125 -170.3125 C 359.53125 -187.613281 355.203125 -201.035156 346.546875 -210.578125 C 337.898438 -220.128906 325.46875 -224.90625 309.25 -224.90625 C 296.28125 -224.90625 283.125 -221.210938 269.78125 -213.828125 C 256.445312 -206.441406 243.472656 -195.898438 230.859375 -182.203125 L 230.859375 -175.71875 L 230.3125 -106.515625 L 230.859375 0 L 202.75 0 L 204.90625 -170.3125 C 204.90625 -187.613281 200.578125 -201.035156 191.921875 -210.578125 C 183.273438 -220.128906 170.84375 -224.90625 154.625 -224.90625 C 129.03125 -224.90625 102.539062 -210.128906 75.15625 -180.578125 L 75.15625 -107.046875 L 76.234375 0 L 48.125 0 L 49.734375 -105.421875 L 48.65625 -243.84375 L 75.15625 -247.078125 L 75.15625 -207.609375 L 78.390625 -207.609375 C 90.648438 -219.503906 103.265625 -229.054688 116.234375 -236.265625 C 129.210938 -243.472656 141.832031 -247.800781 154.09375 -249.25 C 172.832031 -249.25 188.328125 -245.460938 200.578125 -237.890625 C 212.835938 -230.316406 221.488281 -219.503906 226.53125 -205.453125 L 229.234375 -205.453125 C 241.847656 -217.703125 255.09375 -227.613281 268.96875 -235.1875 C 282.851562 -242.757812 296.101562 -247.445312 308.71875 -249.25 C 333.582031 -249.25 352.59375 -242.847656 365.75 -230.046875 C 378.90625 -217.253906 385.484375 -199.144531 385.484375 -175.71875 Z M 384.953125 -106.515625 "/></g></g></g><path stroke-linecap="butt" transform="matrix(22.499999, 0, 0, 22.499999, 0.00000622222, 11.248353)" fill="none" stroke-linejoin="miter" d="M -0.000000276543 0.0000731949 L 64.000003 0.0000731949 " stroke="#000000" stroke-width="1" stroke-opacity="1" stroke-miterlimit="4"/><path stroke-linecap="butt" transform="matrix(0.000000000000001378, 22.499999, -22.499999, 0.000000000000001378, 11.250006, 1.50002)" fill="none" stroke-linejoin="miter" d="M -0.000000885535 0.000000251389 L 36.000001 0.000000251389 " stroke="#000000" stroke-width="1" stroke-opacity="1" stroke-miterlimit="4"/><path stroke-linecap="butt" transform="matrix(-22.499999, -0.000000000000002755, 0.000000000000002755, -22.499999, 1439.999934, 798.74998)" fill="none" stroke-linejoin="miter" d="M -0.00000294321 -0.000000897068 L 64 -0.000000897068 " stroke="#000000" stroke-width="1" stroke-opacity="1" stroke-miterlimit="4"/><path stroke-linecap="butt" transform="matrix(0.000000000000001378, 22.499999, -22.499999, 0.000000000000001378, 1428.749118, -0.000803975)" fill="none" stroke-linejoin="miter" d="M 0.0000357322 -0.0000391847 L 36.000038 -0.0000391847 " stroke="#000000" stroke-width="1" stroke-opacity="1" stroke-miterlimit="4"/></svg>