<svg width="91" height="91" viewBox="0 0 91 91" fill="none" xmlns="http://www.w3.org/2000/svg">
<path d="M90.5 45.5C90.5 70.3528 70.3528 90.5 45.5 90.5C20.6472 90.5 0.5 70.3528 0.5 45.5C0.5 20.6472 20.6472 0.5 45.5 0.5C70.3528 0.5 90.5 20.6472 90.5 45.5Z" fill="white" stroke="black"/>
<g clip-path="url(#clip0_327_15)">
<path d="M18.6227 39.4611C19.3155 39.4611 19.9094 39.7346 20.3548 40.2359V39.5523H21.5425V44.5201H20.7012C20.5032 44.5201 20.3053 44.3834 20.3053 44.2011V43.8365C19.9094 44.3378 19.266 44.6113 18.5732 44.6113C17.0885 44.5657 15.9503 43.4263 15.9503 42.1046V42.059C15.9503 40.6461 17.0885 39.5067 18.6227 39.4611ZM18.8206 40.4638C17.9298 40.4638 17.1875 41.1475 17.1875 41.9678C17.1875 42.0134 17.1875 42.0134 17.1875 42.059C17.138 42.8794 17.7814 43.6086 18.6722 43.6542C19.5629 43.6997 20.3548 43.1072 20.4042 42.2869C20.4042 42.1957 20.4042 42.1501 20.4042 42.059C20.4537 41.2386 19.8104 40.555 18.9196 40.4638H18.8206ZM22.8292 39.5523H24.0169V40.1903C24.3633 39.689 25.0066 39.37 25.65 39.4155C26.8872 39.4155 27.7285 40.2359 27.7285 41.5121V44.5201H26.9367C26.7387 44.5201 26.5408 44.3834 26.5408 44.2011V41.7399C26.5408 40.9651 26.0954 40.4638 25.4025 40.4638C24.6107 40.4638 24.0169 41.0107 24.0169 42.1046V44.5657H23.2251C23.0271 44.5657 22.8292 44.429 22.8292 44.2011V39.5523ZM31.2421 39.4611C31.935 39.4611 32.5288 39.7346 32.9742 40.1903V37.0456H34.1619V44.5201H33.4196C33.2216 44.5201 33.0237 44.3834 33.0237 44.2011V43.8365C32.6278 44.3378 31.9844 44.6113 31.2916 44.6113C29.807 44.5657 28.6687 43.4263 28.7182 42.059V42.0134C28.6193 40.6461 29.7575 39.5067 31.2421 39.4611C31.2421 39.4155 31.2421 39.4155 31.2421 39.4611ZM31.4896 40.4182C30.5988 40.4182 29.8565 41.1019 29.8565 41.9223C29.8565 41.9678 29.8565 41.9678 29.8565 42.0134C29.807 42.8338 30.4503 43.563 31.3411 43.6086C32.2319 43.6542 33.0237 43.0617 33.0732 42.2413C33.0732 42.1501 33.0732 42.1046 33.0732 42.0134C33.1227 41.193 32.4793 40.5094 31.5885 40.4182H31.4896ZM35.5476 39.5067H36.7353V40.4182C36.9333 39.8713 37.5271 39.4611 38.1705 39.4611C38.3189 39.4611 38.4674 39.4611 38.6158 39.5067V40.6461C38.4179 40.6005 38.2199 40.555 38.022 40.555C37.3292 40.555 36.7353 41.1019 36.7353 42.059V44.4745H35.894C35.6961 44.4745 35.4981 44.3378 35.4981 44.1555L35.5476 39.5067ZM41.8326 44.6113C40.2984 44.6113 39.0612 43.4263 39.0612 42.0134C39.0612 40.6005 40.3479 39.4611 41.8821 39.4611C43.4162 39.4611 44.6534 40.6461 44.6534 42.059C44.6534 43.4719 43.4162 44.5657 41.8821 44.6113H41.8326M41.8326 43.6086C42.7234 43.6086 43.4657 42.9249 43.4657 42.1046V42.0134C43.4657 41.193 42.7234 40.5094 41.8326 40.5094C40.9418 40.5094 40.1995 41.193 40.1995 42.0134C40.15 42.8338 40.8428 43.5174 41.7336 43.563H41.8326M46.1875 38.4584C45.7421 38.4584 45.3957 38.1394 45.3957 37.7292C45.3957 37.319 45.7916 37 46.1875 37C46.6329 37 46.9793 37.319 46.9793 37.7292C46.9793 38.1394 46.6329 38.4584 46.1875 38.4584ZM45.5937 39.5523H46.7814V44.5201H45.9896C45.8906 44.5201 45.7916 44.4745 45.7421 44.429C45.6926 44.3834 45.6432 44.2922 45.6432 44.2011L45.5937 39.5523ZM50.394 39.4611C51.0868 39.4611 51.7302 39.7346 52.1261 40.2359V37.0456H53.3138V44.5201H52.4725C52.2746 44.5201 52.0766 44.3834 52.0766 44.2011V43.8365C51.6807 44.3378 51.0374 44.6113 50.3445 44.6113C48.8599 44.5657 47.6722 43.4263 47.7216 42.059V42.0134C47.6722 40.6461 48.8599 39.5067 50.394 39.4611C50.3445 39.4155 50.3445 39.4155 50.394 39.4611ZM50.592 40.4182C49.7012 40.4182 49.0083 41.1019 49.0083 41.9223V41.9678C48.9589 42.7882 49.6022 43.5174 50.493 43.563C51.3838 43.6086 52.1756 43.0161 52.2251 42.1957C52.2251 42.1046 52.2251 42.059 52.2251 41.9678C52.2746 41.1475 51.6312 40.4638 50.7404 40.3727L50.592 40.4182ZM28.9657 52.2681V49.8525H27.8769V48.8499H29.0152V47.437H30.2029V48.8499H31.737V49.8525H30.2029V52.0858C30.2029 52.7239 30.4998 52.9517 31.1432 52.9517C31.3411 52.9517 31.5885 52.9062 31.7865 52.8606V53.8633C31.4896 53.9544 31.1926 54 30.8957 53.9544C29.9554 54.0456 29.1141 53.4075 29.0152 52.5416C28.9657 52.4504 28.9657 52.3592 28.9657 52.2681ZM47.5732 51.3566C47.5732 49.8981 48.8599 48.7131 50.4435 48.7131C52.0271 48.7131 53.3138 49.8981 53.3138 51.3566C53.3138 52.815 52.0271 54 50.4435 54C48.9094 54 47.6227 52.8606 47.5732 51.4477V51.3566ZM52.0766 51.3566C52.0766 50.4906 51.2848 49.807 50.3445 49.8525C49.4042 49.8525 48.6619 50.5818 48.7114 51.4477C48.7609 52.3137 49.5032 52.9973 50.4435 52.9517C51.3343 52.9517 52.0766 52.2681 52.0766 51.4477V51.3566ZM24.3633 52.3593C24.4623 52.8606 24.9571 53.1796 25.5015 53.0885C26.0459 53.0885 26.3923 52.9062 26.3923 52.5416C26.3923 52.1769 26.1449 51.9946 25.6005 51.8579L24.7097 51.63C23.9179 51.5389 23.324 50.8552 23.324 50.126C23.324 49.2601 24.1158 48.7131 25.353 48.7131C26.5903 48.7131 27.3326 49.3056 27.4315 50.2172H26.2438C26.1449 49.8525 25.749 49.5791 25.353 49.5791C24.8582 49.5791 24.5612 49.7614 24.5612 50.0804C24.5612 50.3995 24.8087 50.5818 25.3036 50.6729L26.2438 50.9008C27.2336 51.1287 27.679 51.63 27.679 52.4048C27.679 53.3619 26.7882 53.9088 25.551 53.9088C24.9571 53.9088 24.4128 53.7721 23.9179 53.4531C23.4725 53.1796 23.2251 52.7694 23.2251 52.2681H24.3633V52.3593ZM36.1909 53.1796C35.8445 53.681 35.2507 54 34.6073 53.9544C33.3701 53.9544 32.5783 53.134 32.5783 51.8123V48.8499H33.8155V51.6756C33.8155 52.496 34.2114 52.9517 34.9042 52.9517C35.6961 52.9517 36.2404 52.3592 36.2404 51.311V48.8499H37.4281V53.8633H36.1909V53.1796V53.1796ZM42.7728 53.1796C42.3769 53.681 41.7336 53.9544 41.0903 53.9544C39.6056 53.9088 38.4179 52.815 38.4674 51.4477V51.4021C38.3684 50.0349 39.5066 48.8954 40.9913 48.8043H41.0903C41.7831 48.8043 42.3769 49.0777 42.8223 49.5791V46.4343H44.01V53.8633H42.8223V53.1796H42.7728ZM40.1005 52.496C40.3974 52.815 40.8428 52.9517 41.2387 52.9517C41.6841 52.9517 42.08 52.815 42.3769 52.496C42.9708 51.8579 42.9708 50.8552 42.3769 50.2172C42.08 49.8981 41.6841 49.7614 41.2387 49.7614C40.7933 49.7614 40.3479 49.8981 40.051 50.2172C39.4571 50.8552 39.4571 51.8579 40.1005 52.496ZM45.8906 46.3432C46.336 46.3887 46.6329 46.7078 46.6329 47.118C46.5834 47.4826 46.2865 47.756 45.8906 47.8016C45.5937 47.8016 45.3462 47.6649 45.1978 47.437C45.0493 47.2091 45.0493 46.9357 45.1978 46.7078C45.3462 46.4799 45.5937 46.3432 45.8906 46.3432ZM46.5339 48.8499V53.8633H45.3462V48.8499H46.5339Z" fill="#48548B"/>
<path d="M64.4983 39.1421H60.3413C59.5 39.1421 58.8072 39.7802 58.8072 40.555C58.7577 41.3298 59.4505 41.9223 60.2423 41.9678H64.5478L64.4983 39.1421Z" fill="#48548B"/>
<path d="M74 51.7212H60.2918C59.4505 51.7212 58.7577 51.0831 58.7577 50.3083V40.5549C58.7577 41.3297 59.4505 41.9678 60.2918 41.9678H71.7236C71.7236 41.9678 73.9505 41.7855 73.9505 43.3351V51.7212H74Z" fill="#48548B"/>
<path d="M67.616 46.7077C68.2099 46.2976 68.3584 45.4772 67.8635 44.9303C67.616 44.6112 67.2201 44.4289 66.8242 44.4289H66.8737C66.9727 44.4289 67.0222 44.4289 67.1212 44.4289V43.6541C67.1212 43.563 67.0717 43.4718 66.9727 43.4262C66.8242 43.3807 66.6758 43.3807 66.6263 43.5174C66.5768 43.563 66.5768 43.6086 66.5768 43.6541V44.4745C65.8345 44.5657 65.2901 45.2493 65.4386 45.9329C65.4881 46.252 65.686 46.571 65.9829 46.7533L63.459 51.7212H65.0921L66.2304 49.4423C66.3788 49.1689 66.7253 49.0321 67.0222 49.1689C67.1706 49.2144 67.2696 49.3056 67.3191 49.4423L68.5068 51.7212H70.1894L67.616 46.7077ZM66.7747 46.4799C66.3294 46.4799 65.9334 46.1153 65.9334 45.7051C65.9334 45.2949 66.3294 44.9303 66.7747 44.9303C66.9727 44.9303 67.2201 45.0214 67.3686 45.1581C67.715 45.4772 67.715 45.9785 67.3686 46.252C67.2201 46.3887 66.9727 46.4799 66.7747 46.4799Z" fill="#48548B"/>
<path d="M63.6075 39.8257H69.4471V40.8284H63.6075V39.8257Z" fill="#F6F6F6"/>
<path d="M66.3293 44.9303C66.7747 44.9303 67.1706 45.2949 67.1706 45.7051C67.1706 46.1153 66.7747 46.4799 66.3293 46.4799C65.884 46.4799 65.488 46.1153 65.488 45.7051C65.488 45.4772 65.587 45.2949 65.7355 45.1581C65.884 45.0214 66.0819 44.9303 66.3293 44.9303ZM66.6263 44.4745V43.6541C66.6263 43.563 66.5768 43.4718 66.4778 43.4262C66.3293 43.3807 66.1809 43.3807 66.1314 43.5174C66.0819 43.563 66.0819 43.6086 66.0819 43.6541V44.4745C65.3396 44.5657 64.7952 45.2493 64.9437 45.9329C64.9932 46.252 65.1911 46.571 65.488 46.7533L62.3208 53.0429C62.2218 53.2707 62.2218 53.5442 62.3703 53.7265C62.6177 54.0455 63.0631 54.1367 63.4096 53.9088C63.5085 53.8177 63.6075 53.7265 63.657 53.6354L65.785 49.4879C65.9334 49.2144 66.2799 49.0777 66.5768 49.2144C66.7252 49.26 66.8242 49.3512 66.8737 49.4879L69.0512 53.6354C69.2491 54 69.6945 54.1367 70.0409 53.9544C70.3874 53.7721 70.5853 53.3619 70.3874 53.0429L67.1212 46.7989C67.715 46.3431 67.814 45.5683 67.3686 45.0214C67.1706 44.7024 66.9232 44.5657 66.6263 44.4745Z" fill="#48548B"/>
<path d="M68.5563 40.6917C68.3584 40.6917 68.1604 40.555 68.1604 40.3271C68.1604 40.2359 68.2099 40.1448 68.2594 40.0536C68.4079 39.9169 68.6553 39.9169 68.8038 40.0536C68.8532 40.1448 68.9027 40.1903 68.9027 40.3271C68.9522 40.555 68.8038 40.6917 68.5563 40.6917ZM64.2014 40.6917C64.0034 40.6917 63.8055 40.555 63.8055 40.3271C63.8055 40.2359 63.855 40.1448 63.9044 40.0536C64.0529 39.9169 64.3003 39.8713 64.4488 40.008C64.5973 40.1448 64.6468 40.3727 64.4983 40.555L64.4488 40.6005C64.3498 40.6917 64.2509 40.6917 64.2014 40.6917ZM68.7048 38.504L69.4966 37.2279C69.5461 37.1367 69.4966 37.0912 69.4471 37.0456C69.3976 37 69.2986 37.0456 69.2492 37.0912L68.4079 38.3673C67.1212 37.8204 65.6365 37.8204 64.3003 38.3673L63.5085 37.0912C63.5085 37.0456 63.4591 37 63.4096 37C63.3601 37 63.3106 37.0456 63.2611 37.0912C63.2116 37.1367 63.2116 37.1823 63.2611 37.2279L64.0529 38.504C62.6672 39.1877 61.727 40.5094 61.628 41.9678H71.1792C71.0307 40.5094 70.1399 39.1877 68.7048 38.504Z" fill="#48548B"/>
<path d="M72.6143 44.6568H71.971C71.9215 44.6568 71.9215 44.7024 71.9215 44.748V53.8633C71.9215 53.9088 71.971 53.9544 72.0205 53.9544H72.6638C73.4062 53.9544 74.0495 53.4075 74.0495 52.6783V43.4263C74 44.1099 73.4062 44.6568 72.6143 44.6568Z" fill="#48548B"/>
</g>
<defs>
<clipPath id="clip0_327_15">
<rect width="58" height="17" fill="white" transform="translate(16 37)"/>
</clipPath>
</defs>
</svg>
