<svg width="91" height="91" viewBox="0 0 91 91" fill="none" xmlns="http://www.w3.org/2000/svg">
<path d="M90.5 45.5C90.5 70.3528 70.3528 90.5 45.5 90.5C20.6472 90.5 0.5 70.3528 0.5 45.5C0.5 20.6472 20.6472 0.5 45.5 0.5C70.3528 0.5 90.5 20.6472 90.5 45.5Z" fill="white" stroke="black"/>
<g clip-path="url(#clip0_327_9)">
<path d="M60.9631 33.4803L48.0225 25.7928C46.4769 24.8719 44.5711 24.8719 43.0256 25.7928L30.085 33.4803C28.5394 34.3932 27.5865 36.0908 27.5865 37.9246V53.2916C27.5865 55.1254 28.5394 56.8231 30.085 57.736L43.0256 65.4154C43.7943 65.8719 44.6592 66.1041 45.524 66.1041C46.3889 66.1041 47.2457 65.8719 48.0225 65.4154L60.9631 57.736C62.5086 56.8151 63.4615 55.1254 63.4615 53.2916V37.9246C63.4615 36.0908 62.5086 34.3932 60.9631 33.4803Z" fill="#F6F6F6"/>
<path d="M60.9631 33.4804L48.0225 25.7929C47.2537 25.3364 46.3889 25.1042 45.524 25.1042C44.6592 25.1042 43.8023 25.3364 43.0256 25.7929L30.085 33.4804C28.5394 34.3932 27.5865 36.0909 27.5865 37.9247V53.2917C27.5865 55.1255 28.5394 56.8231 30.085 57.736L43.0256 65.4155C43.7943 65.872 44.6592 66.1042 45.524 66.1042C46.3889 66.1042 47.2457 65.872 48.0225 65.4155L60.9631 57.736C62.5086 56.8151 63.4615 55.1255 63.4615 53.2917V37.9247C63.4615 36.0909 62.5086 34.3932 60.9631 33.4804ZM43.482 64.6308L30.5414 56.9513C29.2762 56.1985 28.4914 54.7972 28.4914 53.2917V37.9247C28.4914 36.4192 29.2762 35.0179 30.5414 34.2651L43.482 26.5856C44.1066 26.2173 44.8113 26.0251 45.524 26.0251C46.2367 26.0251 46.9494 26.2173 47.566 26.5856L60.5066 34.2651C61.5717 34.8977 62.2924 35.9948 62.4926 37.228C62.0602 36.3151 61.0992 36.0589 59.9701 36.7235L47.7262 44.2909C46.1967 45.1798 45.0756 46.1888 45.0756 48.0225V63.1093C45.0756 64.2143 45.516 64.927 46.2047 65.1352C45.9805 65.1753 45.7562 65.1993 45.524 65.1993C44.8113 65.1913 44.0986 64.9991 43.482 64.6308Z" fill="#48548B"/>
<path d="M57.5758 54.773L54.3486 56.7029C54.2605 56.751 54.1965 56.807 54.1965 56.9111V57.7519C54.1965 57.856 54.2686 57.8961 54.3486 57.848L57.6238 55.8621C57.7119 55.8141 57.7199 55.718 57.7199 55.6139V54.8691C57.7279 54.765 57.6559 54.725 57.5758 54.773Z" fill="#F6F6F6"/>
<path d="M50.7131 47.6781C50.8172 47.6221 50.9053 47.6941 50.9053 47.8303L50.9133 48.9434C51.3777 48.7592 51.7861 48.7111 52.1545 48.7912C52.2346 48.8152 52.2666 48.9193 52.2346 49.0475L51.9863 50.0324C51.9703 50.1045 51.9223 50.1846 51.8742 50.2326C51.8502 50.2566 51.8342 50.2727 51.8101 50.2807C51.7781 50.2967 51.7461 50.3047 51.7141 50.2967C51.5459 50.2566 51.1455 50.1685 50.5209 50.4889C49.8643 50.8252 49.632 51.3937 49.64 51.8182C49.648 52.3227 49.9043 52.4828 50.8012 52.4908C51.9943 52.5068 52.5148 53.0353 52.5228 54.2365C52.5389 55.4217 51.9062 56.6869 50.9373 57.4717L50.9613 58.5768C50.9613 58.7129 50.8732 58.865 50.7691 58.9131L50.1125 59.2894C50.0084 59.3455 49.9203 59.2814 49.9203 59.1453L49.9123 58.0562C49.3518 58.2885 48.7832 58.3445 48.4228 58.2004C48.3508 58.1764 48.3268 58.0723 48.3508 57.9602L48.591 56.9592C48.607 56.8791 48.6551 56.799 48.7111 56.751C48.7352 56.735 48.7512 56.7189 48.7752 56.7029C48.8152 56.6869 48.8473 56.6789 48.8793 56.6949C49.2717 56.823 49.7682 56.767 50.2486 56.5187C50.8572 56.2064 51.2656 55.5898 51.2576 54.9652C51.2496 54.4047 50.9453 54.1725 50.2086 54.1645C49.2717 54.1645 48.3908 53.9803 48.3748 52.5949C48.3668 51.4578 48.9594 50.2727 49.8963 49.5199L49.8883 48.4068C49.8883 48.2707 49.9684 48.1186 50.0805 48.0625L50.7131 47.6781Z" fill="#F6F6F6"/>
</g>
<defs>
<clipPath id="clip0_327_9">
<rect width="41" height="41" fill="white" transform="translate(25 25)"/>
</clipPath>
</defs>
</svg>
