<svg width="91" height="91" viewBox="0 0 91 91" fill="none" xmlns="http://www.w3.org/2000/svg">
<circle cx="45.5" cy="45.5" r="45" fill="white" stroke="black"/>
<path d="M61.3983 27L58.4467 61.8378L45.1793 65.7132L31.9484 61.8433L29 27H61.3983Z" fill="#48548B"/>
<path d="M55.9199 59.6194L58.4422 29.8489H45.1992V62.751L55.9199 59.6194Z" fill="#48548B"/>
<path d="M35.7592 42.7719L36.1228 47.0452H45.1992V42.7719H35.7592Z" fill="#F6F6F6"/>
<path d="M45.1992 34.1224H45.1851H35.0288L35.3975 38.3958H45.1992V34.1224Z" fill="#F6F6F6"/>
<path d="M45.1991 58.3163V53.8702L45.1814 53.8752L40.6643 52.5901L40.3755 49.1819H38.1805H36.304L36.8722 55.8917L45.1805 58.3218L45.1991 58.3163Z" fill="#F6F6F6"/>
<path d="M50.1795 47.0451L49.7088 52.5874L45.1851 53.8738V58.3198L53.5 55.8917L53.561 55.1698L54.5141 43.9193L54.6131 42.7718L55.3453 34.1224H45.1851V38.3958H50.9003L50.5313 42.7718H45.1851V47.0451H50.1795Z" fill="#F6F6F6"/>
</svg>
