<svg width="91" height="91" viewBox="0 0 91 91" fill="none" xmlns="http://www.w3.org/2000/svg">
<circle cx="45.5" cy="45.5" r="45" fill="white" stroke="black"/>
<path d="M37.5015 68C41.6407 68 45 64.7146 45 60.6666V53.3333H37.5015C33.3623 53.3333 30.003 56.6186 30.003 60.6666C30.003 64.7146 33.3623 68 37.5015 68Z" fill="#A9B8FF"/>
<path d="M30.003 46C30.003 41.952 33.3623 38.6667 37.5015 38.6667H45V53.3334H37.5015C33.3623 53.3334 30.003 50.048 30.003 46Z" fill="#8197FF"/>
<path d="M30.0029 31.3333C30.0029 27.2853 33.3622 24 37.5014 24H44.9999V38.6667H37.5014C33.3622 38.6667 30.0029 35.3813 30.0029 31.3333Z" fill="#6B79BC"/>
<path d="M45 24H52.4985C56.6377 24 59.997 27.2853 59.997 31.3333C59.997 35.3813 56.6377 38.6667 52.4985 38.6667H45V24Z" fill="#7C8DDA"/>
<path d="M59.997 46C59.997 50.048 56.6377 53.3334 52.4985 53.3334C48.3593 53.3334 45 50.048 45 46C45 41.952 48.3593 38.6667 52.4985 38.6667C56.6377 38.6667 59.997 41.952 59.997 46Z" fill="#48548B"/>
</svg>
