<svg width="274" height="152" viewBox="0 0 274 152" fill="none" xmlns="http://www.w3.org/2000/svg">
<g clip-path="url(#clip0_213_13)">
<path d="M106.616 86.3113L106.616 86.3113L106.616 86.3178L106.714 105.803H102.375L102.778 74.3499L102.778 74.3499V74.3435C102.778 71.0143 101.933 68.3593 100.176 66.449C98.4114 64.5277 95.8969 63.5987 92.7109 63.5987C90.1461 63.5987 87.5611 64.3201 84.9614 65.7387L84.9612 65.7388C82.3679 67.1554 79.8583 69.1701 77.4295 71.7709L77.2949 71.915V72.1122V73.3273V73.329L77.1909 86.3112L77.1908 86.3112L77.1909 86.3178L77.2923 105.803H72.9528L73.3566 74.3499L73.3566 74.3499V74.3435C73.3566 71.0143 72.5111 68.3593 70.754 66.449C68.9897 64.5277 66.4752 63.5987 63.2892 63.5987C58.2202 63.5987 53.0564 66.4843 47.8037 72.0747L47.6681 72.219V72.4171L47.6681 86.2155L47.6681 86.2207L47.8681 105.803H43.5324L43.8308 86.5282L43.8309 86.5282L43.8309 86.5165L43.6292 60.988L47.6681 60.5019V67.3446V67.8446H48.1681H48.7835H48.9842L49.1292 67.7058C51.4345 65.4997 53.8005 63.7349 56.2248 62.4055C58.638 61.0837 60.9684 60.297 63.2173 60.0305C66.7051 60.0344 69.5471 60.7326 71.7729 62.0891L71.7729 62.0891C74.0056 63.4497 75.5796 65.387 76.5015 67.9202L76.6213 68.2492H76.9714H77.4857H77.6866L77.8316 68.1103C80.2024 65.8395 82.6868 64.0076 85.2831 62.6098C87.8717 61.2177 90.325 60.3628 92.645 60.0305C97.277 60.0365 100.741 61.2162 103.115 63.4948L103.116 63.4949C105.495 65.7772 106.716 69.0297 106.717 73.3271C106.717 73.3277 106.717 73.3283 106.717 73.329L106.616 86.3113Z" fill="white" stroke="white"/>
<path d="M138.608 77.2863V77.2873V132.412L135.545 132.574L135.286 132.216V26.5152L138.61 26.2626L138.709 26.3602L138.608 77.2863Z" fill="white" stroke="white"/>
<path d="M231.196 86.3113L231.196 86.3113L231.196 86.3178L231.294 105.803H226.955L227.359 74.3499L227.359 74.3499V74.3435C227.359 71.0143 226.513 68.3593 224.756 66.449C222.992 64.5277 220.477 63.5987 217.291 63.5987C214.726 63.5987 212.141 64.3201 209.542 65.7387L209.542 65.7388C206.948 67.1554 204.439 69.1701 202.01 71.7709L201.875 71.915V72.1122V73.3273V73.329L201.771 86.3112L201.771 86.3112L201.771 86.3178L201.873 105.803H197.533L197.937 74.3499L197.937 74.3499V74.3435C197.937 71.0143 197.091 68.3593 195.334 66.449C193.57 64.5277 191.056 63.5987 187.87 63.5987C182.8 63.5987 177.637 66.4843 172.384 72.0747L172.248 72.219V72.4171L172.248 86.2155L172.248 86.2207L172.448 105.803H168.113L168.411 86.5282L168.411 86.5282L168.411 86.5165L168.21 60.988L172.248 60.5019V67.3446V67.8446H172.748H173.364H173.565L173.71 67.7058C176.015 65.4997 178.381 63.7349 180.805 62.4055C183.218 61.0837 185.549 60.297 187.798 60.0305C191.285 60.0344 194.127 60.7326 196.353 62.0891L196.353 62.0891C198.586 63.4497 200.16 65.387 201.082 67.9202L201.202 68.2492H201.552H202.066H202.267L202.412 68.1103C204.783 65.8395 207.267 64.0076 209.863 62.6098C212.452 61.2177 214.905 60.3628 217.225 60.0305C221.857 60.0365 225.321 61.2162 227.696 63.4948L227.696 63.4949C230.076 65.7772 231.297 69.0297 231.297 73.3271C231.297 73.3277 231.297 73.3283 231.297 73.329L231.196 86.3113Z" fill="white" stroke="white"/>
<path d="M0 2.11108H274" stroke="white" stroke-width="4"/>
<path d="M2.14062 0.281494L2.14063 152.281" stroke="white" stroke-width="4"/>
<path d="M274 149.889L3.05176e-05 149.889" stroke="white" stroke-width="4"/>
<path d="M271.859 0L271.859 152" stroke="white" stroke-width="4"/>
</g>
<defs>
<clipPath id="clip0_213_13">
<rect width="274" height="152" fill="white"/>
</clipPath>
</defs>
</svg>
