<svg width="91" height="91" viewBox="0 0 91 91" fill="none" xmlns="http://www.w3.org/2000/svg">
<circle cx="45.5" cy="45.5" r="45" fill="white" stroke="black"/>
<path d="M64.8116 44.5185L47.9845 27.7254C47.0163 26.7582 45.4447 26.7582 44.4753 27.7254L40.9813 31.2131L45.4133 35.6367C46.4436 35.2894 47.6246 35.5222 48.4455 36.3418C49.2707 37.1664 49.5022 38.3552 49.1456 39.387L53.4173 43.6505C54.4507 43.2951 55.6431 43.5247 56.4683 44.3498C57.622 45.501 57.622 47.3663 56.4683 48.5178C55.3144 49.6696 53.4455 49.6696 52.291 48.5178C51.4235 47.6513 51.209 46.3791 51.6484 45.3123L47.6646 41.3361L47.6642 51.7994C47.9455 51.9384 48.2109 52.1239 48.4453 52.3568C49.5987 53.5079 49.5987 55.3729 48.4453 56.5258C47.2916 57.6768 45.4219 57.6768 44.2694 56.5258C43.1159 55.373 43.1159 53.508 44.2694 52.3568C44.5545 52.0728 44.8843 51.8578 45.2363 51.7137V41.1531C44.8842 41.0096 44.5547 40.7963 44.2692 40.51C43.3954 39.6385 43.185 38.3586 43.6331 37.2877L39.264 32.9262L27.727 44.441C26.7577 45.4089 26.7577 46.9775 27.727 47.9448L44.5532 64.738C45.5219 65.7052 47.093 65.7052 48.0631 64.738L64.8114 48.0242C65.7805 47.0565 65.7805 45.4874 64.8114 44.52" fill="#48548B"/>
</svg>
