<svg width="91" height="91" viewBox="0 0 91 91" fill="none" xmlns="http://www.w3.org/2000/svg">
<path d="M90.5 45.5C90.5 70.3528 70.3528 90.5 45.5 90.5C20.6472 90.5 0.5 70.3528 0.5 45.5C0.5 20.6472 20.6472 0.5 45.5 0.5C70.3528 0.5 90.5 20.6472 90.5 45.5Z" fill="white" stroke="black"/>
<path d="M56.709 59.9603H56.5324V59.8546H57.0078V59.9603H56.8324V60.4878H56.709V59.9603ZM57.6573 59.9879H57.6545L57.4796 60.4878H57.3995L57.2256 59.9879H57.2235V60.4878H57.1072V59.8547H57.2783L57.4395 60.303L57.6002 59.8547H57.7708V60.4878H57.6572V59.9879H57.6573Z" fill="#48548B"/>
<path d="M40.899 47.0137C40.899 47.0137 39.6703 47.7782 41.7735 48.0369C44.3215 48.3479 45.6237 48.3033 48.4316 47.7347C48.4316 47.7347 49.1699 48.23 50.2009 48.6589C43.9063 51.5453 35.9549 48.4917 40.899 47.0137Z" fill="#48548B"/>
<path d="M40.1299 43.2471C40.1299 43.2471 38.7517 44.3386 40.8565 44.5715C43.5783 44.8719 45.7278 44.8965 49.4473 44.1302C49.4473 44.1302 49.9618 44.6882 50.7707 44.9934C43.1602 47.3745 34.6834 45.1812 40.1299 43.2471Z" fill="#48548B"/>
<path d="M46.6142 36.8577C48.1652 38.7683 46.2067 40.4875 46.2067 40.4875C46.2067 40.4875 50.1449 38.3123 48.3362 35.5885C46.647 33.0483 45.3516 31.7862 52.3644 27.4346C52.3644 27.4346 41.3566 30.3761 46.6142 36.8577Z" fill="#48548B"/>
<path d="M54.9393 49.7996C54.9393 49.7996 55.8486 50.6013 53.9378 51.2214C50.3045 52.3991 38.8155 52.7547 35.624 51.2684C34.4767 50.7343 36.6282 49.9933 37.3049 49.8378C38.0108 49.674 38.4141 49.7045 38.4141 49.7045C37.1382 48.7428 30.1672 51.5928 34.8732 52.409C47.7071 54.6358 58.2682 51.4062 54.9393 49.7996Z" fill="#48548B"/>
<path d="M41.4899 39.3445C41.4899 39.3445 35.6459 40.8296 39.4204 41.3689C41.0141 41.5972 44.1912 41.5455 47.1505 41.2802C49.569 41.062 51.9975 40.5979 51.9975 40.5979C51.9975 40.5979 51.1447 40.9886 50.5277 41.4394C44.5932 43.1093 33.1288 42.3324 36.4293 40.6243C39.2205 39.1807 41.4899 39.3445 41.4899 39.3445Z" fill="#48548B"/>
<path d="M51.9734 45.6141C58.0061 42.2601 55.2168 39.0369 53.2699 39.4711C52.7927 39.5774 52.5799 39.6695 52.5799 39.6695C52.5799 39.6695 52.7571 39.3726 53.0954 39.244C56.947 37.7953 59.9091 43.517 51.8521 45.7832C51.8521 45.7833 51.9455 45.694 51.9734 45.6141Z" fill="#48548B"/>
<path d="M48.3362 20.4079C48.3362 20.4079 51.6772 23.9837 45.1674 29.4824C39.9472 33.8932 43.9771 36.4082 45.1653 39.2816C42.1181 36.3401 39.882 33.7507 41.3822 31.3407C43.5841 27.8031 49.6842 26.0879 48.3362 20.4079Z" fill="#48548B"/>
<path d="M42.0827 54.7028C47.8733 55.0994 56.7655 54.4828 56.9761 51.5512C56.9761 51.5512 56.5713 52.6625 52.1905 53.5451C47.248 54.5403 41.1522 54.4241 37.5368 53.7863C37.5369 53.7862 38.2769 54.4417 42.0827 54.7028Z" fill="#48548B"/>
<path d="M41.1337 65.9044C40.5874 66.4114 40.0105 66.696 39.4928 66.696C38.7538 66.696 38.3545 66.2218 38.3545 65.4614C38.3545 64.6388 38.7823 64.0374 40.4985 64.0374H41.1336V65.9044M42.641 67.724V62.0916C42.641 60.6527 41.874 59.7033 40.0247 59.7033C38.9451 59.7033 37.9994 59.9885 37.2308 60.3523L37.4526 61.3493C38.0578 61.1117 38.8412 60.8904 39.6101 60.8904C40.6754 60.8904 41.1337 61.3493 41.1337 62.2981V63.01H40.602C38.0137 63.01 36.8461 64.0849 36.8461 65.6985C36.8461 67.091 37.6156 67.8825 39.0643 67.8825C39.9955 67.8825 40.6907 67.4712 41.3405 66.8692L41.4584 67.7241H42.641V67.724Z" fill="#48548B"/>
<path d="M47.6715 67.7241H45.7915L43.529 59.8459H45.1707L46.5747 64.6863L46.8868 66.142C47.597 64.0373 48.0993 61.902 48.3506 59.8459H49.9476C49.5197 62.4402 48.7497 65.2876 47.6715 67.7241Z" fill="#48548B"/>
<path d="M54.8833 65.9044C54.336 66.4114 53.758 66.696 53.2403 66.696C52.5026 66.696 52.1023 66.2218 52.1023 65.4614C52.1023 64.6388 52.5311 64.0374 54.2472 64.0374H54.8833V65.9044ZM56.3904 67.724V62.0916C56.3904 60.6527 55.6215 59.7033 53.7744 59.7033C52.694 59.7033 51.748 59.9885 50.9797 60.3523L51.2012 61.3493C51.8066 61.1117 52.5915 60.8904 53.3598 60.8904C54.4243 60.8904 54.8833 61.3493 54.8833 62.2981V63.01H54.3507C51.7617 63.01 50.5946 64.0849 50.5946 65.6985C50.5946 67.091 51.3634 67.8825 52.8119 67.8825C53.7436 67.8825 54.4385 67.4712 55.0895 66.8692L55.2079 67.7241H56.3904V67.724Z" fill="#48548B"/>
<path d="M35.1934 69.0619C34.7637 69.7332 34.0697 70.2642 33.3099 70.5647L32.5657 69.6277C33.144 69.3102 33.64 68.7974 33.8704 68.3197C34.0698 67.8949 34.1523 67.3475 34.1523 66.0383V57.0442H35.7537V65.915C35.7536 67.6654 35.6228 68.3724 35.1934 69.0619Z" fill="#48548B"/>
</svg>
