<svg width="20" height="21" viewBox="0 0 20 21" fill="none" xmlns="http://www.w3.org/2000/svg">
<path fill-rule="evenodd" clip-rule="evenodd" d="M1.99074 0.159424H17.9167C19.0161 0.159424 19.9074 1.05071 19.9074 2.15016V18.0761C19.9074 19.1755 19.0161 20.0668 17.9167 20.0668H1.99074C0.891285 20.0668 0 19.1755 0 18.0761V2.15016C0 1.05071 0.891285 0.159424 1.99074 0.159424ZM1.99074 2.15V18.0759H17.9167V2.15H1.99074ZM10.9491 7.12709C10.4337 7.12709 9.88925 7.28462 9.40839 7.57715L8.95833 7.12709H7.96296V14.0947H9.9537V10.1132C9.9537 9.54012 10.5449 9.11784 10.9491 9.11784H11.9444C12.3486 9.11784 12.9398 9.54012 12.9398 10.1132V14.0947H14.9306V10.1132C14.9306 8.26896 13.3319 7.12709 11.9444 7.12709H10.9491ZM5.97222 6.13172C6.52195 6.13172 6.96759 5.68608 6.96759 5.13635C6.96759 4.58663 6.52195 4.14098 5.97222 4.14098C5.42249 4.14098 4.97685 4.58663 4.97685 5.13635C4.97685 5.68608 5.42249 6.13172 5.97222 6.13172ZM4.97685 14.0947H6.96759V7.12709H4.97685V14.0947Z" fill="white"/>
</svg>
