<svg width="91" height="91" viewBox="0 0 91 91" fill="none" xmlns="http://www.w3.org/2000/svg">
<path d="M90.5 45.5C90.5 70.3528 70.3528 90.5 45.5 90.5C20.6472 90.5 0.5 70.3528 0.5 45.5C0.5 20.6472 20.6472 0.5 45.5 0.5C70.3528 0.5 90.5 20.6472 90.5 45.5Z" fill="white" stroke="black"/>
<g clip-path="url(#clip0_327_13)">
<path d="M40.2023 50.7994C39.3851 54.9416 38.3077 57.9551 36.9701 59.8273C35.9278 61.2744 34.7861 61.998 33.5428 61.998C33.2114 61.998 32.8029 61.9047 32.3175 61.7193V60.7206C32.5544 60.753 32.8324 60.7703 33.1518 60.7703C33.7318 60.7703 34.1991 60.6206 34.5552 60.3216C34.981 59.9573 35.1941 59.5481 35.1941 59.0943C35.1941 58.7844 35.0279 58.1483 34.6969 57.1862L32.495 50.7974H34.466L36.046 55.5758C36.401 56.6605 36.549 57.418 36.4898 57.8498C37.3541 55.6924 37.9582 53.3418 38.3014 50.8007H40.2016M31.5011 59.0624H29.4951C29.4245 55.8983 29.2289 52.9228 28.9093 50.1344H28.8916L25.8368 59.0624H24.309L21.2728 50.1344H21.2549C21.0296 52.8115 20.8878 55.7864 20.8288 59.0624H18.9993C19.1175 55.0794 19.4134 51.347 19.8865 47.8625H22.373L25.2677 56.0908H25.2854L28.198 47.8625H30.5772C31.0982 51.944 31.4058 55.6778 31.5002 59.0624" fill="#48548B"/>
<path d="M66.9114 59.0611H61.2114V47.8613H63.1295V57.682H66.9114V59.0598M52.5773 56.8192C52.0919 56.0889 51.8489 54.9176 51.8489 53.302C51.8489 50.4817 52.7668 49.0705 54.6013 49.0705C55.5607 49.0705 56.2649 49.408 56.7146 50.0826C57.1995 50.8128 57.4423 51.9748 57.4423 53.5678C57.4423 56.4107 56.5244 57.8332 54.6899 57.8332C53.7312 57.8332 53.0263 57.4961 52.5773 56.8205M59.7158 59.331L57.5124 58.3156C57.7086 58.1653 57.8949 58.003 58.0635 57.8153C58.9993 56.7879 59.4669 55.2668 59.4669 53.2527C59.4669 49.547 57.9098 47.6934 54.7964 47.6934C53.2693 47.6934 52.079 48.1633 51.2268 49.1046C50.291 50.1333 49.8234 51.649 49.8234 53.6511C49.8234 55.62 50.2375 57.0644 51.066 57.9819C51.8209 58.8113 52.9626 59.2264 54.4918 59.2264C55.0621 59.2264 55.5856 59.1608 56.0611 59.0296L58.93 60.5899L59.7121 59.3307M48.9884 55.9561C48.9884 56.9062 48.6149 57.6857 47.8703 58.296C47.1253 58.9035 46.1238 59.2081 44.8705 59.2081C43.6981 59.2081 42.5621 58.8576 41.4611 58.1621L41.976 57.2C42.9233 57.6425 43.7805 57.8634 44.5497 57.8634C45.2718 57.8634 45.8366 57.7133 46.2455 57.4167C46.6534 57.1179 46.8978 56.7011 46.8978 56.1727C46.8978 55.5077 46.4014 54.9395 45.4908 54.4625C44.6501 54.0313 42.9701 53.1313 42.9701 53.1313C42.06 52.5107 41.6031 51.8447 41.6031 50.748C41.6031 49.8406 41.9435 49.107 42.6233 48.5494C43.3047 47.9902 44.184 47.7105 45.2606 47.7105C46.3738 47.7105 47.3854 47.988 48.2969 48.5414L47.834 49.5028C47.054 49.1938 46.2855 49.0388 45.5269 49.0388C44.9118 49.0388 44.4374 49.1769 44.1071 49.4545C43.7748 49.7297 43.5693 50.084 43.5693 50.5158C43.5693 51.1792 44.0765 51.7544 45.0127 52.2408C45.8642 52.6721 47.5857 53.59 47.5857 53.59C48.5222 54.2094 48.9891 54.8699 48.9891 55.9579" fill="#48548B"/>
<path d="M68.2769 59.0611H68.5946V57.9218H69.0106V57.689H67.8445V57.9218H68.2766L68.2769 59.0611ZM70.6954 59.0611H70.995V57.6886H70.5444L70.1777 58.624L69.7785 57.6886H69.3444V59.0611H69.6278V58.0164H69.6439L70.062 59.0611H70.278L70.6954 58.0164V59.0611" fill="#48548B"/>
<path d="M50.9688 29C50.462 28.9929 50.0201 29.1713 49.7921 29.6942C49.4009 30.5743 50.3714 31.4398 50.705 31.8869C50.951 32.1978 51.2699 32.5502 51.4428 32.9016C51.5443 33.1318 51.5736 33.3759 51.6754 33.6192C51.9069 34.2145 52.1237 34.8777 52.4282 35.4334C52.587 35.7176 52.7606 36.0156 52.9634 36.2716C53.0803 36.4213 53.2824 36.4881 53.326 36.7324C53.1239 37.0028 53.1081 37.4087 52.9925 37.7478C52.4714 39.2769 52.6737 41.1717 53.4127 42.295C53.6438 42.6333 54.1948 43.3777 54.934 43.0932C55.5857 42.85 55.4408 42.0785 55.629 41.4023C55.6723 41.2387 55.6433 41.1314 55.73 41.0233V41.0506C55.9327 41.429 56.1361 41.7935 56.3242 42.1739C56.7738 42.8364 57.5553 43.5264 58.2073 43.9861C58.5539 44.2307 58.8294 44.6495 59.264 44.799V44.758H59.2354C59.1481 44.6366 59.0181 44.5821 58.9021 44.4878C58.6415 44.2441 58.3527 43.9461 58.1493 43.6757C57.5412 42.9181 57.0047 42.0786 56.5278 41.2125C56.2954 40.792 56.093 40.3324 55.9046 39.9133C55.8179 39.7517 55.8179 39.5073 55.6727 39.4263C55.4549 39.7237 55.1371 39.9811 54.9781 40.3451C54.7027 40.9277 54.6739 41.645 54.5717 42.3892C54.5141 42.4033 54.5432 42.3893 54.5141 42.4163C54.0512 42.308 53.8919 41.8615 53.7177 41.4835C53.2833 40.5214 53.2102 38.9783 53.5874 37.869C53.6883 37.5853 54.1241 36.6924 53.9495 36.4212C53.8619 36.163 53.5724 36.0155 53.4134 35.8116C53.2256 35.5545 53.0217 35.2303 52.8927 34.9454C52.5449 34.1879 52.3701 33.3484 51.9948 32.5909C51.8208 32.2384 51.5159 31.8733 51.2706 31.5488C50.9948 31.1833 50.6911 30.9263 50.4734 30.4935C50.4017 30.3443 50.3002 30.1004 50.4156 29.9385C50.4441 29.83 50.5029 29.7894 50.6189 29.7622C50.8062 29.6133 51.3424 29.8024 51.5304 29.8836C52.0667 30.0861 52.5156 30.2764 52.9638 30.5599C53.1668 30.6955 53.3841 30.9528 53.6444 31.021H53.9493C54.4125 31.115 54.9344 31.0472 55.3691 31.1695C56.1362 31.3994 56.8311 31.7377 57.4545 32.103C59.3512 33.2263 60.9154 34.824 61.972 36.7315C62.1463 37.0424 62.2193 37.3267 62.3784 37.6509C62.6826 38.3154 63.0597 38.9921 63.3635 39.6411C63.6675 40.2772 63.9576 40.9263 64.3923 41.4546C64.6089 41.7383 65.4783 41.8872 65.8693 42.0362C66.1584 42.1576 66.6078 42.266 66.8688 42.4147C67.3611 42.6983 67.8525 43.0237 68.3165 43.3354C68.5476 43.4979 69.2716 43.8359 69.3152 44.107L69.3155 44.1072C68.1566 44.0801 67.2587 44.1882 66.5059 44.4862C66.2886 44.5673 65.9414 44.5672 65.9116 44.8244C66.0283 44.9324 66.0424 45.1084 66.1445 45.2579C66.3178 45.5285 66.6212 45.8934 66.8973 46.0834C67.2015 46.3001 67.5055 46.5158 67.8245 46.7052C68.3889 47.0314 69.0263 47.2201 69.5761 47.5447C69.8957 47.7339 70.2133 47.9774 70.5326 48.1809C70.6914 48.2891 70.7918 48.4654 70.9954 48.5323V48.4911C70.8934 48.3697 70.865 48.1939 70.7642 48.0578C70.6197 47.9235 70.4744 47.8009 70.3293 47.6662C69.9091 47.1384 69.387 46.6788 68.8237 46.2996C68.3598 46.0011 67.3452 45.5947 67.1579 45.0957C67.1579 45.0957 67.1426 45.0815 67.1284 45.0682C67.4471 45.0407 67.8246 44.9322 68.1285 44.8502C68.6203 44.7287 69.0694 44.756 69.5762 44.6346C69.8083 44.5801 70.0401 44.5122 70.2728 44.4457V44.323C70.0107 44.08 69.8234 43.7545 69.5486 43.5248C68.8108 42.9296 67.9986 42.3482 67.1586 41.8598C66.709 41.5891 66.1299 41.414 65.6516 41.1836C65.4786 41.1022 65.1892 41.0622 65.0874 40.9261C64.8266 40.6285 64.6811 40.2365 64.4932 39.884C64.0736 39.1405 63.6675 38.315 63.3057 37.5288C63.0451 37.0014 62.8858 36.4741 62.5672 35.9864C61.0745 33.6851 59.4531 32.292 56.9623 30.9248C56.4263 30.6402 55.7891 30.5187 55.1092 30.3698C54.7466 30.3556 54.385 30.3292 54.0226 30.3159C53.7905 30.2208 53.5582 29.9633 53.3559 29.8416C52.8397 29.5373 51.8145 29.0108 50.9702 28.9988L50.9688 29ZM54.542 32.3453C54.2962 32.3453 54.1229 32.3731 53.948 32.4133V32.4404H53.9763C54.0932 32.6564 54.2963 32.8065 54.4399 32.9956C54.5566 33.2122 54.658 33.4279 54.7738 33.6448C54.788 33.6315 54.8018 33.6175 54.8018 33.6175C55.006 33.4827 55.1074 33.2663 55.1074 32.9412C55.0198 32.8458 55.0061 32.7518 54.9331 32.6566C54.8464 32.5216 54.658 32.4539 54.5419 32.3455L54.542 32.3453Z" fill="#48548B"/>
</g>
<defs>
<clipPath id="clip0_327_13">
<rect width="52" height="33" fill="white" transform="translate(19 29)"/>
</clipPath>
</defs>
</svg>
