<svg width="91" height="91" viewBox="0 0 91 91" fill="none" xmlns="http://www.w3.org/2000/svg">
<path d="M90.5 45.5C90.5 70.3528 70.3528 90.5 45.5 90.5C20.6472 90.5 0.5 70.3528 0.5 45.5C0.5 20.6472 20.6472 0.5 45.5 0.5C70.3528 0.5 90.5 20.6472 90.5 45.5Z" fill="white" stroke="black"/>
<path d="M45.1848 26C34.8621 26 35.5067 30.4128 35.5067 30.4128L35.5182 34.9844H45.3689V36.357H31.6055C31.6055 36.357 25 35.6186 25 45.8859C25 56.1533 30.7654 55.7892 30.7654 55.7892H34.2063V51.0247C34.2063 51.0247 34.0208 45.3414 39.8797 45.3414C45.7385 45.3414 49.6498 45.3414 49.6498 45.3414C49.6498 45.3414 55.1391 45.4289 55.1391 40.1119C55.1391 34.7948 55.1391 31.3203 55.1391 31.3203C55.1391 31.3203 55.9725 26 45.1848 26ZM39.7531 29.0742C40.7332 29.0742 41.5253 29.8551 41.5253 30.8212C41.5253 31.7873 40.7332 32.5681 39.7531 32.5681C38.773 32.5681 37.9809 31.7873 37.9809 30.8212C37.9809 29.8551 38.773 29.0742 39.7531 29.0742Z" fill="#48548B"/>
<path d="M45.478 65.8748C55.8007 65.8748 55.1561 61.462 55.1561 61.462L55.1446 56.8904H45.2939V55.5178H59.0573C59.0573 55.5178 65.6628 56.2562 65.6628 45.9888C65.6628 35.7215 59.8973 36.0856 59.8973 36.0856H56.4565V40.85C56.4565 40.85 56.642 46.5334 50.7831 46.5334C44.9243 46.5334 41.0129 46.5334 41.0129 46.5334C41.0129 46.5334 35.5237 46.4459 35.5237 51.7629C35.5237 57.0799 35.5237 60.5545 35.5237 60.5545C35.5237 60.5545 34.6903 65.8748 45.478 65.8748ZM50.9097 62.8006C49.9296 62.8006 49.1375 62.0197 49.1375 61.0536C49.1375 60.0875 49.9296 59.3066 50.9097 59.3066C51.8898 59.3066 52.6819 60.0875 52.6819 61.0536C52.6819 62.0197 51.8898 62.8006 50.9097 62.8006Z" fill="#48548B"/>
</svg>
