<svg width="91" height="91" viewBox="0 0 91 91" fill="none" xmlns="http://www.w3.org/2000/svg">
<circle cx="45.5" cy="45.5" r="45" fill="white" stroke="black"/>
<g clip-path="url(#clip0_327_7)">
<path d="M45.8045 50.0849C47.9512 50.0849 49.6914 48.3598 49.6914 46.2317C49.6914 44.1036 47.9512 42.3785 45.8045 42.3785C43.6579 42.3785 41.9176 44.1036 41.9176 46.2317C41.9176 48.3598 43.6579 50.0849 45.8045 50.0849Z" fill="#48548B"/>
<path d="M45.8045 54.1261C57.3233 54.1261 66.661 50.5917 66.661 46.2317C66.661 41.8718 57.3233 38.3373 45.8045 38.3373C34.2858 38.3373 24.948 41.8718 24.948 46.2317C24.948 50.5917 34.2858 54.1261 45.8045 54.1261Z" stroke="#48548B"/>
<path d="M38.908 50.1789C44.6674 60.0679 52.424 66.3174 56.2328 64.1374C60.0416 61.9574 58.4604 52.1736 52.701 42.2845C46.9417 32.3954 39.1851 26.146 35.3763 28.326C31.5674 30.5059 33.1487 40.2898 38.908 50.1789Z" stroke="#48548B"/>
<path d="M38.908 42.2845C33.1487 52.1735 31.5675 61.9574 35.3763 64.1374C39.1851 66.3173 46.9417 60.0679 52.701 50.1788C58.4604 40.2898 60.0416 30.5059 56.2328 28.3259C52.424 26.146 44.6674 32.3954 38.908 42.2845Z" stroke="#48548B"/>
</g>
<defs>
<clipPath id="clip0_327_7">
<rect width="43.6091" height="38.4634" fill="white" transform="translate(24 27)"/>
</clipPath>
</defs>
</svg>
