<svg width="26" height="26" viewBox="0 0 26 26" fill="none" xmlns="http://www.w3.org/2000/svg">
<path d="M8.7569 7.34357C8.7569 7.71267 8.73998 8.0862 8.79337 8.45231C8.83872 8.76328 8.98667 9.6893 8.98667 9.37505C8.98667 9.089 8.92879 8.79421 8.90461 8.50884C8.86588 8.05184 8.81595 7.59939 8.74048 7.14662C8.71556 6.99707 8.68796 6.85212 8.64383 6.70714C8.62114 6.63259 8.62036 6.62067 8.62742 6.70896C8.65062 6.99899 8.69886 7.29027 8.77331 7.57152C8.81903 7.74425 8.90049 7.9576 8.80613 7.65358C8.72598 7.39531 8.63323 7.1433 8.54536 6.88767C8.51188 6.79026 8.41593 6.54928 8.43047 6.80379C8.44593 7.07433 8.50722 7.34313 8.57636 7.60434C8.63749 7.83528 8.68943 8.07363 8.77331 8.29731C8.79886 8.36545 8.8882 8.68054 8.8882 8.63103C8.8882 8.08083 8.6256 7.56327 8.6256 7.01715C8.6256 6.76807 8.74317 7.50199 8.82437 7.73747C8.9647 8.14441 9.16211 8.53842 9.28027 8.95198C9.33248 9.13472 9.44621 9.36028 9.44621 9.55376C9.44621 9.75261 9.37396 9.16261 9.33133 8.96839C9.30899 8.86663 9.23931 8.36925 9.30033 8.74409C9.38183 9.24478 9.48396 9.73885 9.61034 10.2303C9.69188 10.5474 9.73163 10.882 9.8237 11.195C9.87178 11.3585 9.77918 10.8571 9.75805 10.688C9.72159 10.3963 9.65663 10.1145 9.61216 9.82548C9.58395 9.64212 9.63288 10.1965 9.6614 10.3798C9.71311 10.7123 9.76797 11.045 9.80728 11.3792C9.81897 11.4785 9.84011 11.5742 9.84011 11.6746C9.84011 11.718 9.89813 11.8041 9.8547 11.8041C9.59503 11.8041 10.3682 11.7092 10.6279 11.7092C10.9895 11.7092 11.3672 11.75 11.7111 11.6272C11.955 11.5401 12.381 11.5917 12.632 11.6126C13.3841 11.6753 14.1459 11.729 14.8951 11.7092C15.591 11.6909 16.2851 11.6436 16.9813 11.6436C17.663 11.6436 18.324 11.9062 18.9982 11.9062C19.2368 11.9062 19.4677 11.939 19.7057 11.939C19.8923 11.939 20.0627 11.8734 20.2528 11.8734C20.5165 11.8734 20.7667 11.8405 21.026 11.8405C21.0607 11.8405 21.3418 11.8438 21.2302 11.8405C21.0369 11.8349 20.7871 11.7898 20.5993 11.7421C19.7957 11.538 19.0258 11.2529 18.2432 10.9871C17.704 10.804 17.1842 10.5386 16.6348 10.3707C15.8858 10.1419 15.1968 9.83782 14.4757 9.54282C13.9508 9.32808 13.4033 9.09182 12.9256 8.78785C12.7247 8.66002 12.5181 8.5166 12.3056 8.41037C12.1324 8.32375 11.9577 8.19808 11.7749 8.12954C11.4662 8.01375 11.1623 7.83732 10.8759 7.67364C10.6131 7.52345 10.3113 7.46247 10.0407 7.32716C9.59543 7.10452 9.15024 6.90599 8.74231 6.60684C8.42012 6.37057 8.70099 6.95675 8.7569 7.06456C8.91652 7.3724 9.0776 7.6754 9.20003 8.00189C9.32454 8.33392 9.40893 8.68002 9.52645 9.0158C9.63123 9.31517 9.7576 9.61273 9.84011 9.92213C9.86997 10.0341 10.1528 11.0487 10.2522 11.0035C10.4277 10.9238 10.7493 10.9871 10.9379 10.9871C11.1859 10.9871 11.4339 10.9871 11.6819 10.9871C12.5137 10.9871 13.3257 11.1841 14.1584 11.1841C15.1445 11.1841 16.1256 11.3153 17.1089 11.3153C17.1437 11.3153 17.2983 11.3106 17.1782 11.2898C16.9568 11.2515 16.7269 11.2386 16.5035 11.2169C15.7097 11.1395 14.9193 11.0221 14.1255 10.9397C13.0395 10.8269 11.9935 10.4711 10.9087 10.3452C10.7187 10.3231 10.5372 10.3084 10.3507 10.265C10.3025 10.2537 10.0633 10.2508 10.0407 10.1993C10.0237 10.1605 10.3965 10.1725 10.4127 10.1738C10.8274 10.2059 11.2384 10.294 11.6491 10.3561C12.4084 10.4711 13.1866 10.4947 13.9541 10.4947C13.9964 10.4947 14.4405 10.4947 14.2313 10.4947C13.6777 10.4947 13.116 10.4009 12.5682 10.3306C11.6886 10.2178 10.8096 10.102 9.92764 10.0097C9.84258 10.0008 9.73566 10.0044 9.89482 10.0024C10.1106 9.99956 10.3242 9.97075 10.5404 9.96954C11.3653 9.96491 12.1886 10.0024 13.0132 10.0024C13.1658 10.0024 13.5093 10.0703 13.6514 9.99507C13.7524 9.94162 13.4342 9.92337 13.3232 9.8966C12.5573 9.71196 11.776 9.56769 11.0036 9.41152C10.8187 9.37415 10.4677 9.3689 10.3142 9.2474C10.2583 9.20311 10.5115 9.1512 10.5221 9.14892C10.8418 9.08013 11.1884 9.08388 11.5142 9.04316C11.8351 9.00304 11.5195 8.92837 11.3829 8.87903C10.9974 8.73982 10.6001 8.61396 10.2085 8.49243C10.074 8.45069 9.80728 8.44849 9.80728 8.26266C9.80728 8.24094 9.79764 8.07775 9.82187 8.0803C9.91566 8.09017 10.0477 8.25311 10.1246 8.30278C10.327 8.43348 10.5391 8.53454 10.7592 8.63102C11.3026 8.86924 11.8723 9.13531 12.4624 9.23281C12.6417 9.26243 12.8268 9.28337 12.9986 9.33858C13.347 9.45056 13.69 9.59917 14.0417 9.69965C14.3059 9.77516 14.322 10.1883 14.5669 10.3379C14.626 10.3741 14.6375 10.4535 14.7054 10.4947C14.798 10.5509 14.9767 10.5594 15.0264 10.6589" stroke="white" stroke-linecap="round"/>
<path d="M21.2302 13.3505C21.0663 13.4962 20.7601 13.6186 20.5573 13.6933C20.288 13.7926 19.9718 13.8751 19.6875 13.9067C19.369 13.9421 19.0477 14.0676 18.7356 14.1456C18.551 14.1917 18.3634 14.2283 18.1776 14.2696C18.0521 14.2975 17.9415 14.3734 17.8165 14.4082C17.182 14.5844 16.6873 15.0785 16.044 15.2215C15.8758 15.2589 15.6873 15.3247 15.5261 15.3856C15.2792 15.4789 15.0053 15.5254 14.7492 15.5972C14.4371 15.6845 14.1152 15.7566 13.8101 15.8634C13.3886 16.0109 12.9386 16.0696 12.5244 16.2391C12.1731 16.3828 11.8192 16.5251 11.4813 16.6986C11.0223 16.9343 10.5398 17.0839 10.1027 17.3697C9.84701 17.5369 9.69263 17.804 9.4535 17.9788C9.35975 18.0473 9.25238 18.215 9.18361 18.3143C9.13377 18.3863 9.06344 18.4564 9.00125 18.5186C8.8545 18.6653 8.79862 18.7666 8.57635 18.7666C8.51594 18.7666 8.39674 18.7839 8.3557 18.8249C8.26879 18.9118 8.56889 18.6922 8.68942 18.6681C8.88897 18.6282 9.08933 18.5366 9.28208 18.4711C9.50358 18.3959 9.73938 18.3421 9.95499 18.2578C10.4732 18.055 11.0819 18.0288 11.5798 17.7891C11.9733 17.5996 12.3903 17.4108 12.8016 17.2639C13.1536 17.1382 13.4941 16.9718 13.7973 16.7788C14.0113 16.6427 14.274 16.5483 14.5012 16.4287C14.6663 16.3418 14.9419 16.2475 15.0847 16.1333C15.1653 16.0689 15.2945 16.0834 15.371 16.0239C15.4474 15.9645 15.5601 15.9279 15.6501 15.8853C15.8093 15.8099 16.0122 15.7305 16.1825 15.6738C16.5858 15.5393 17.0031 15.3734 17.3734 15.1741C17.7394 14.977 18.1558 14.8834 18.5222 14.6799C18.7059 14.5778 18.9082 14.4989 19.1039 14.4264C19.3661 14.3293 19.5996 14.1403 19.8516 14.0143C19.9918 13.9442 20.1398 13.8647 20.2528 13.7517C20.314 13.6905 20.3598 13.6155 20.3786 13.531C20.3867 13.4948 20.4479 13.3049 20.4352 13.2921C20.3662 13.2232 20.0892 13.3142 20.0084 13.3177C19.8114 13.3262 19.6203 13.3963 19.4249 13.418C18.9604 13.4696 18.4975 13.5461 18.028 13.5784C17.1047 13.6421 16.1674 13.6787 15.2416 13.6787C14.2483 13.6787 13.2704 13.6137 12.2837 13.5456C11.5065 13.492 10.7374 13.4818 9.95499 13.4818C9.82563 13.4818 9.61033 13.5555 9.61033 13.686C9.61033 14.0774 9.57389 14.5284 9.48633 14.9115C9.33972 15.5529 9.22664 16.1942 9.04502 16.8299C8.95878 17.1318 8.81092 17.427 8.70765 17.7162C8.68504 17.7795 8.56576 18.0276 8.65842 17.8475C8.80676 17.559 9.05809 17.3107 9.23467 17.0378C9.52373 16.5911 9.77289 16.1166 10.037 15.6555C10.2733 15.2432 10.6091 14.898 10.823 14.4702C10.8737 14.3687 10.895 14.2653 10.9488 14.1711C11.1696 13.7848 10.5769 14.9898 10.2978 15.3364C10.0392 15.6576 9.81693 15.9984 9.59939 16.3485C9.57632 16.3856 9.44985 16.6437 9.44985 16.6056C9.44985 16.414 9.54228 16.1944 9.59939 16.0166C9.75544 15.5308 9.93169 15.0509 10.1355 14.5832C10.1529 14.5434 10.3235 14.1164 10.3306 14.1985C10.3642 14.584 10.2228 14.9664 10.1191 15.3309C9.92523 16.0123 9.62018 16.6567 9.38056 17.3223C9.25888 17.6603 9.5468 16.6193 9.69057 16.2901C9.81662 16.0015 9.9261 15.7133 10.0316 15.4166C10.1298 15.1405 10.0035 15.5976 9.98234 15.6519C9.85002 15.9906 9.65158 16.3073 9.47174 16.622C9.31267 16.9004 9.1821 17.1963 9.01219 17.4682C8.92345 17.6102 8.86392 17.778 8.70765 17.8475C8.62606 17.8837 8.44956 18.0271 8.38305 18.0937C8.30546 18.1712 8.22762 18.4892 8.2317 18.5951C8.23431 18.6631 8.40984 18.5166 8.43229 18.504C8.62783 18.394 8.78158 18.2823 8.94107 18.1228C9.38501 17.6789 9.74026 17.1495 10.11 16.6439C10.6788 15.8662 10.8556 14.7968 11.547 14.1055C11.7428 13.9097 11.6903 14.1969 11.6582 14.3681C11.555 14.9185 11.3163 15.4138 11.0656 15.9072C10.9644 16.1061 10.8583 16.3129 10.73 16.4962C10.7096 16.5254 10.6643 16.6294 10.7081 16.5272C10.7973 16.3191 10.9922 16.1378 11.1403 15.9746C11.5072 15.5706 11.9186 15.2061 12.3147 14.8313C12.5515 14.6072 12.8045 14.3868 13.0168 14.1383C13.2075 13.9151 13.0204 14.1764 12.9584 14.2769C12.6203 14.8257 12.2624 15.3369 11.8424 15.8269C11.822 15.8508 11.5966 16.1578 11.6856 15.9947C11.8439 15.7045 12.0798 15.4865 12.3019 15.247C12.6302 14.8931 12.9128 14.4831 13.2885 14.1766C13.3352 14.1385 13.9127 13.7198 13.8392 13.934C13.6352 14.5291 13.136 14.9682 12.8344 15.5096C12.7632 15.6376 12.7004 15.7439 12.8472 15.5807C13.1515 15.2426 13.5558 14.9656 13.9158 14.6927C14.3589 14.3568 14.7727 14.0278 15.2817 13.7991C15.3346 13.7754 15.5815 13.6379 15.4622 13.8137C15.0545 14.4145 14.4795 14.8901 13.9067 15.3236C13.8299 15.3817 13.7632 15.4316 13.8885 15.3455C14.1639 15.1561 14.4125 14.9516 14.7182 14.8075C15.1181 14.6191 15.5569 14.45 15.9965 14.3826C16.0595 14.373 16.396 14.2783 16.2482 14.3681C15.8385 14.6168 15.3058 14.6072 14.886 14.8404C14.7178 14.9338 15.2323 14.6712 15.413 14.6051C16.0541 14.3707 16.7224 14.2694 17.3971 14.1857C17.572 14.164 17.2273 14.277 17.1746 14.3024C16.9889 14.392 16.7719 14.4417 16.571 14.4811C16.336 14.5273 16.0968 14.5457 15.8616 14.5905C15.7945 14.6033 15.831 14.5641 15.847 14.5322" stroke="white" stroke-linecap="round"/>
<path d="M12.634 13.9958C12.634 14.1933 12.3951 14.6048 12.1664 14.6334C11.9588 14.6593 11.6521 14.9052 11.5052 15.0419C11.2005 15.3256 10.9313 15.6097 10.9786 16.036C10.9908 16.1455 11.1008 16.4764 10.9574 16.5461C10.7106 16.666 10.4471 16.6231 10.2631 16.8531C10.2113 16.9178 10.2537 17.1639 10.2537 17.2474C10.2537 17.5198 10.3221 17.5016 10.5914 17.4175C10.8521 17.336 11.1091 17.1619 11.3376 17.0349C11.5786 16.901 11.8032 16.7584 12.0389 16.6406C12.2897 16.5152 12.5371 16.4063 12.7828 16.2698C12.8921 16.2091 12.9647 16.1287 13.1015 16.1211C13.2451 16.1131 13.3724 16.0895 13.4416 15.951" stroke="white" stroke-linecap="round"/>
<path d="M13.4416 16.3762C13.4114 16.618 12.8546 16.7402 12.6765 16.7564C12.3914 16.7823 12.0944 16.7587 11.8075 16.7587C11.5086 16.7587 11.0974 16.9365 10.8157 17.0232C10.6925 17.0611 10.5818 17.1385 10.4662 17.1932C10.3916 17.2286 10.2174 17.2672 10.3812 17.2263" stroke="white" stroke-linecap="round"/>
<path d="M13.059 14.5911C12.6209 14.3046 12.1734 14.2817 11.6989 14.1236" stroke="white" stroke-linecap="round"/>
<path d="M17.0545 10.8506C16.2758 10.6764 15.5143 10.2148 14.7167 10.1705C14.4497 10.1557 14.6232 10.4375 14.6317 10.6286C14.6326 10.6476 14.6819 10.8742 14.6648 10.8742C14.6177 10.8742 14.4685 10.7477 14.4192 10.7231" stroke="white" stroke-linecap="round"/>
<path d="M11.1463 8.30023C10.7057 8.22012 10.2574 8.03431 9.88769 7.78781C9.72208 7.67741 9.49245 7.40762 9.27608 7.40762C9.21562 7.40762 9.35083 7.56665 9.37054 7.58709C9.50391 7.7254 9.60031 7.86508 9.7035 8.02631C9.99617 8.48361 10.2965 8.93352 10.5725 9.40065C10.6085 9.46153 10.9238 9.83722 10.6362 9.69346C10.4201 9.58537 10.2521 9.34252 10.1356 9.14089C10.0325 8.96237 9.95617 8.77993 9.95617 8.57652C9.95617 8.24469 10.3395 8.55792 10.5087 8.61902C11.2106 8.87246 11.877 9.36286 12.6552 9.36286C13.1151 9.36286 13.5059 9.29435 13.9517 9.41481C14.2225 9.48803 14.5084 9.60108 14.7593 9.72652C14.8365 9.76512 14.8956 9.8343 14.8018 9.74541C14.6523 9.60381 14.517 9.44882 14.3531 9.32272C13.83 8.92032 13.2373 8.58118 12.6529 8.27662C12.4988 8.19634 12.1853 7.92479 12.379 8.21522" stroke="white" stroke-linecap="round"/>
<path d="M14.8868 9.27772C15.2214 9.45489 15.5469 9.89411 15.9494 9.91529C16.2981 9.93365 16.6558 10.1389 17.0026 10.2034C17.2244 10.2447 17.426 10.357 17.652 10.3852C17.8054 10.4044 18.099 10.4797 18.2234 10.5765C18.3657 10.6871 18.571 10.6932 18.7335 10.7654C18.9797 10.8748 19.2429 10.9283 19.4962 11.0204C19.7629 11.1174 20.0084 11.256 20.2755 11.3605C20.3487 11.3891 20.4156 11.4332 20.4951 11.4431C20.5045 11.4443 20.6411 11.452 20.6297 11.4785C20.6201 11.5009 19.7955 11.2809 19.7324 11.266C18.5986 10.998 17.4683 10.7163 16.3508 10.3829C15.5214 10.1354 14.7797 9.54076 14.013 9.1502C13.4129 8.84446 12.9084 8.39229 12.3128 8.08757C11.82 7.83542 11.3034 7.61622 10.7826 7.42874C10.6537 7.3823 10.2565 7.2835 10.1687 7.17371C10.0737 7.05499 9.68165 7.00749 9.53346 6.96118C9.41296 6.92353 9.07154 6.8284 9.02104 6.7274" stroke="white" stroke-linecap="round"/>
<path d="M24.914 12.5736C24.9139 12.6845 24.8812 12.793 24.82 12.8855C24.7588 12.9781 24.6717 13.0506 24.5697 13.094L8.26383 20.082C8.1202 20.1435 7.96239 20.1642 7.80776 20.1418C7.65312 20.1194 7.50767 20.0548 7.3874 19.9551C7.26713 19.8553 7.17671 19.7243 7.12609 19.5765C7.07547 19.4287 7.06662 19.2698 7.1005 19.1172L8.55526 12.5736L7.1005 6.02997C7.06634 5.87729 7.07502 5.71814 7.12559 5.57008C7.17616 5.42202 7.26665 5.29081 7.38707 5.19093C7.5075 5.09104 7.65317 5.02637 7.80803 5.00404C7.96288 4.98171 8.1209 5.0026 8.26463 5.0644L24.5689 12.054C24.6709 12.0975 24.758 12.17 24.8192 12.2625C24.8804 12.355 24.9131 12.4635 24.9132 12.5744L24.914 12.5736ZM9.58809 13.1389L8.32548 18.8226L21.5881 13.1389L9.58809 13.1389ZM21.5881 12.0068L8.32548 6.323L9.58969 12.0068L21.5889 12.0076L21.5881 12.0068Z" fill="black"/>
</svg>
