<svg width="91" height="91" viewBox="0 0 91 91" fill="none" xmlns="http://www.w3.org/2000/svg">
<path d="M90.5 45.5C90.5 70.3528 70.3528 90.5 45.5 90.5C20.6472 90.5 0.5 70.3528 0.5 45.5C0.5 20.6472 20.6472 0.5 45.5 0.5C70.3528 0.5 90.5 20.6472 90.5 45.5Z" fill="white" stroke="black"/>
<path d="M38.2848 45.8254C37.5384 45.8254 36.9315 46.0566 36.4663 46.5186C36.001 46.981 35.765 47.5871 35.765 48.3298C35.765 48.7147 35.8236 49.0657 35.9391 49.3872C36.0546 49.7094 36.2343 50.0079 36.476 50.2777C36.7176 50.5476 37.2012 50.9144 37.922 51.3806C38.8065 51.9455 39.3853 52.4039 39.6631 52.7618C39.9411 53.1194 40.079 53.4942 40.079 53.885C40.079 54.4082 39.9144 54.8258 39.5761 55.1397C39.2371 55.4538 38.7839 55.6102 38.2219 55.6102C37.6291 55.6102 37.1128 55.3916 36.6694 54.9576C36.226 54.5229 36.0022 53.9479 35.9972 53.2273H35.7215V55.843H35.9972C36.0813 55.5953 36.1978 55.4686 36.3502 55.4686C36.4235 55.4686 36.5953 55.5215 36.8629 55.6203C37.5138 55.8626 38.0484 55.9796 38.4685 55.9796C39.1926 55.9796 39.8107 55.7143 40.3257 55.1751C40.8399 54.6362 41.0995 53.9862 41.0995 53.2273C41.0995 52.6388 40.9281 52.1152 40.5917 51.6589C40.2553 51.202 39.601 50.6705 38.6233 50.0601C37.782 49.5313 37.2359 49.1007 36.9838 48.7649C36.7313 48.4297 36.6017 48.0588 36.6017 47.6519C36.6017 47.2117 36.7563 46.8582 37.0612 46.5945C37.366 46.3306 37.7655 46.1998 38.2654 46.1998C38.828 46.1998 39.2969 46.3745 39.668 46.726C40.0386 47.0781 40.253 47.5661 40.316 48.1932H40.5917V45.9266H40.3354C40.304 46.0422 40.275 46.116 40.2483 46.1492C40.2224 46.1822 40.1725 46.1998 40.0984 46.1998C40.0092 46.1998 39.8502 46.1606 39.6244 46.0835C39.1408 45.9131 38.6949 45.8254 38.2848 45.8254ZM47.2949 45.8254C46.3854 45.8254 45.5598 46.0497 44.8138 46.4983C44.0667 46.9462 43.4753 47.5681 43.0389 48.3602C42.6026 49.1522 42.386 49.9934 42.386 50.8899C42.386 52.0942 42.7628 53.1672 43.5225 54.1076C44.2826 55.0474 45.1934 55.6331 46.2502 55.8581C46.4918 55.9898 46.8375 56.3298 47.29 56.8801C47.8 57.5011 48.2314 57.9491 48.5862 58.2158C48.9406 58.4827 49.3232 58.6783 49.7275 58.8077C50.1322 58.9367 50.5698 59 51.043 59C51.616 59 52.1291 58.8958 52.581 58.6813L52.4794 58.4182C52.2171 58.5171 51.9374 58.5649 51.6427 58.5649C51.2429 58.5649 50.8387 58.4269 50.4336 58.15C50.0291 57.8724 49.5233 57.3427 48.9199 56.5614C48.6363 56.187 48.4405 55.9508 48.3298 55.8581C49.4861 55.6219 50.4369 55.0357 51.1784 54.0975C51.9198 53.1597 52.2908 52.0894 52.2908 50.8899C52.2908 49.4656 51.8064 48.2686 50.8447 47.2927C49.8823 46.3166 48.6988 45.8254 47.2949 45.8254ZM52.9195 45.8254L52.934 46.1341C53.5395 46.1341 53.8787 46.3206 53.9545 46.6956C53.9827 46.8298 53.9957 47.0776 53.998 47.4343L53.9932 54.2594C53.9882 54.7691 53.9187 55.0946 53.7852 55.2358C53.6516 55.3761 53.4256 55.4639 53.0985 55.4989L53.084 55.8075H59.1197L59.2745 54.2594H58.9988C58.9201 54.6811 58.7396 54.9833 58.4523 55.1549C58.1643 55.3278 57.6549 55.4129 56.9192 55.4129H56.3485C55.6865 55.4129 55.3035 55.1626 55.2023 54.6591C55.1814 54.5595 55.1742 54.4527 55.1733 54.3353L55.1975 47.4343C55.1973 46.9254 55.2588 46.5843 55.3861 46.4174C55.5147 46.251 55.7467 46.1579 56.0825 46.1341L56.068 45.8254H52.9195H52.9195ZM47.3916 46.1998C48.4173 46.1998 49.2547 46.6224 49.9017 47.4748C50.5484 48.3275 50.8689 49.4961 50.8689 50.9759C50.8689 52.3781 50.5437 53.5009 49.892 54.3454C49.2402 55.1897 48.3728 55.6102 47.2949 55.6102C46.2593 55.6102 45.4195 55.1765 44.7751 54.3049C44.1313 53.4333 43.8127 52.3017 43.8127 50.9101C43.8127 49.4801 44.1352 48.3354 44.7848 47.4798C45.434 46.6252 46.3034 46.1998 47.3916 46.1998ZM61.2719 47.667C61.1247 47.667 61.0125 47.7191 60.9285 47.8239C60.8426 47.9283 60.8163 48.0548 60.8463 48.2084C60.8753 48.3574 60.9556 48.488 61.0833 48.598C61.2102 48.7078 61.3471 48.7649 61.4944 48.7649C61.6367 48.7649 61.7453 48.7078 61.8232 48.598C61.9012 48.488 61.925 48.3574 61.8958 48.2084C61.8658 48.0548 61.7882 47.9283 61.6685 47.8239C61.5474 47.7191 61.4143 47.667 61.2719 47.667ZM65.2522 48.7143C65.0021 49.721 64.4598 50.2657 63.6272 50.3536L63.6369 50.6419H64.609L64.5896 54.0519C64.5912 54.6349 64.6082 55.0231 64.6477 55.2207C64.7434 55.6936 65.0386 55.934 65.5327 55.934C66.2475 55.934 66.9973 55.4785 67.7816 54.568L67.5446 54.3555C66.9784 54.9551 66.4777 55.2561 66.0405 55.2561C65.7718 55.2561 65.6053 55.0944 65.5424 54.7754C65.5252 54.698 65.5182 54.6074 65.5182 54.5022L65.5279 50.6419H67.0126L66.9981 50.1815H65.5327V48.7143H65.2522H65.2522ZM70.9929 49.9994C70.1624 49.9994 69.4869 50.4212 68.9617 51.2592C68.4392 52.0986 68.2774 53.0287 68.4829 54.0519C68.6038 54.6513 68.8446 55.1158 69.2132 55.4433C69.5811 55.7705 70.0479 55.934 70.606 55.934C71.1256 55.934 71.8492 55.7964 72.1537 55.5192C72.4589 55.2421 72.7402 54.7932 73 54.1784L72.7921 53.9508C72.3777 54.7483 71.5414 55.1498 70.9107 55.1498C70.0437 55.1498 69.5126 54.6522 69.3147 53.6624C69.289 53.536 69.2698 53.4003 69.2567 53.2576C70.2882 53.0868 71.0699 52.7843 71.5975 52.3469C72.1246 51.9094 72.6539 51.4456 72.5551 50.9556C72.4963 50.6645 72.3518 50.4355 72.1295 50.2625C71.9043 50.0895 71.3197 49.9994 70.9929 49.9994ZM61.9151 50.0348L60.1257 50.4649V50.7988L60.7447 50.7178C61.0446 50.7178 61.221 50.8599 61.2767 51.1428C61.2955 51.2375 61.3073 51.3705 61.3106 51.5374L61.2912 54.5984C61.2862 55.0219 61.2413 55.2682 61.151 55.3421C61.0599 55.4161 60.8196 55.4534 60.4304 55.4534L60.4207 55.7418H63.2596L63.2548 55.4534C62.8603 55.4534 62.6046 55.4208 62.4907 55.3573C62.3786 55.2941 62.3015 55.1791 62.2682 55.0031C62.2425 54.8762 62.2312 54.6576 62.2295 54.3555L62.2392 50.0348H61.9151H61.9151ZM70.5383 50.6015C70.7111 50.6015 70.878 50.6713 71.0461 50.8089C71.2119 50.9461 71.3129 51.0986 71.346 51.2642C71.5079 52.078 70.8182 52.6406 69.2664 52.9541C69.2221 52.3607 69.3203 51.822 69.5711 51.3351C69.8198 50.8486 70.1439 50.6015 70.5383 50.6015Z" fill="#48548B"/>
<path d="M34.2764 34.1392H18.8766C17.8445 34.1392 17 35.0227 17 36.1024V53.8687C17 54.9483 17.8445 55.8317 18.8766 55.8317H29.0193C28.9042 50.5523 30.6276 40.3066 34.2764 34.1392Z" fill="#48548B"/>
<path d="M33.7169 34.7119H18.8766C18.1437 34.7119 17.5473 35.3356 17.5473 36.1024V52.5724C20.9084 51.223 25.9528 50.0586 29.4408 50.1115C30.1417 46.2776 32.2017 38.7639 33.7169 34.7119V34.7119Z" fill="#48548B"/>
<path d="M37.8685 33.5577C36.8138 32.5738 35.5368 32.969 34.2764 34.1392C34.0893 34.313 33.9027 34.5059 33.717 34.7119C31.5609 37.1045 29.5596 41.5365 28.9379 44.9212C29.1801 45.4351 29.3693 46.0908 29.4939 46.5916C29.5258 46.7201 29.5546 46.8408 29.5776 46.9434C29.6324 47.1862 29.6618 47.3437 29.6618 47.3437C29.6618 47.3437 29.6424 47.2671 29.5631 47.0265C29.548 46.9804 29.5312 46.93 29.5113 46.8707C29.5028 46.8462 29.491 46.8165 29.478 46.7847C29.3374 46.4427 28.9483 45.7208 28.7771 45.4065C28.6307 45.8584 28.5012 46.2812 28.3929 46.6637C28.8872 47.6097 29.1884 49.231 29.1884 49.231C29.1884 49.231 29.1623 49.126 29.0381 48.7593C28.9278 48.4349 28.3786 47.4283 28.2485 47.1929C28.0259 48.0524 27.9375 48.6326 28.0173 48.7739C28.1721 49.0476 28.3195 49.52 28.449 50.0423C28.7415 51.2191 28.9448 52.6517 28.9448 52.6517C28.9448 52.6517 28.9514 52.7466 28.9624 52.8927C28.9218 53.881 28.9462 54.9056 29.0193 55.8317C29.1162 57.0576 29.2987 58.1108 29.5312 58.6744L29.6891 58.5844C29.3476 57.4739 29.2089 56.0186 29.2696 54.3403C29.3615 51.775 29.9258 48.6814 30.9686 45.4569C32.7301 40.5894 35.1742 36.684 37.4111 34.8189C35.3723 36.7451 32.6129 42.9801 31.7869 45.289C30.862 47.8745 30.2065 50.3008 29.8115 52.6254C30.493 50.4461 32.6967 49.5093 32.6967 49.5093C32.6967 49.5093 33.7775 48.1149 35.0406 46.1227C34.284 46.3033 33.0416 46.6123 32.6255 46.7952C32.0117 47.0646 31.8463 47.1565 31.8463 47.1565C31.8463 47.1565 33.8346 45.8898 35.5404 45.3163C37.8865 41.4509 40.4424 35.9597 37.8685 33.5577" fill="#48548B"/>
</svg>
